<svg width="1080" height="1080" viewBox="0 0 1080 1080" fill="none" xmlns="http://www.w3.org/2000/svg">
<path fill-rule="evenodd" clip-rule="evenodd" d="M552.109 959.092C553.179 956.114 563.787 887.166 541.269 834.638C519.261 783.321 553.785 698.966 587.376 673.377C624.085 645.043 608.452 591.445 607.754 589.166C607.568 588.142 606.963 587.258 606.126 586.7C605.242 586.141 604.172 586.002 603.195 586.281C602.217 586.607 601.38 587.305 600.961 588.235C600.543 589.165 600.543 590.236 600.961 591.166C600.964 591.179 600.978 591.231 601.002 591.32C601.839 594.432 614.936 643.096 582.956 667.748C547.224 695.381 511.492 782.434 535.313 837.474C556.363 885.286 546.905 949.702 545.791 957.288C545.725 957.734 545.689 957.983 545.689 958.022C545.503 958.952 545.735 959.929 546.294 960.674C546.852 961.465 547.736 961.977 548.666 962.07C550.388 962.023 551.83 960.767 552.109 959.092ZM483.524 837.091C483.524 837.09 483.525 837.088 483.525 837.087L483.524 837.091ZM63.5381 278.051V472.063C63.5845 488.208 76.6127 501.281 92.7111 501.514H191.345C193.299 501.514 194.928 499.885 194.928 497.931C194.928 495.931 193.299 494.349 191.345 494.349H92.7111C80.4281 494.349 70.4251 484.393 70.4251 472.063V278.051C70.4251 272.142 72.798 266.466 76.9853 262.279C81.1259 258.138 86.8021 255.765 92.7109 255.765H314.499C326.782 255.765 336.785 265.769 336.785 278.051V379.896C336.785 381.85 338.367 383.479 340.321 383.479C341.298 383.479 342.228 383.107 342.926 382.455C343.578 381.757 343.95 380.827 343.903 379.896V278.051C343.996 270.048 340.833 262.418 335.156 256.788C329.48 251.205 321.757 248.134 313.801 248.274H289.979V183.696C289.979 135.914 251.177 97.1114 203.349 97.1114C155.567 97.1114 116.764 135.914 116.764 183.696V248.646H92.943C76.7517 248.693 63.5846 261.813 63.5381 278.051ZM283.049 248.274H124.161L124.162 183.696C124.162 139.822 159.755 104.276 203.629 104.276C247.503 104.276 283.049 139.822 283.049 183.696V248.274ZM651.575 339.139V327.228C651.575 326.298 651.948 325.367 652.599 324.716C653.297 324.065 654.181 323.646 655.158 323.646C657.065 323.739 658.647 325.274 658.694 327.228V339.139C658.647 341.093 657.065 342.675 655.158 342.721C653.157 342.721 651.575 341.14 651.575 339.139ZM677.663 327.268C678.359 328.08 679.322 328.531 680.375 328.531C681.212 328.531 682.003 328.298 682.655 327.833C684.19 326.624 684.469 324.39 683.26 322.855C677.258 314.062 667.813 308.245 657.298 306.897C648.551 306.571 640.083 309.549 633.477 315.225C632.081 316.621 632.081 318.808 633.477 320.204C634.128 320.901 635.012 321.274 635.943 321.274C636.92 321.274 637.804 320.901 638.455 320.204C643.526 315.877 650.04 313.55 656.693 313.783C665.3 315.132 672.884 320.064 677.629 327.368L677.663 327.268ZM728.436 318.156V330.066L728.389 330.206C728.343 332.16 726.761 333.695 724.807 333.695C722.853 333.602 721.317 332.067 721.224 330.113V318.202C721.317 316.248 722.853 314.666 724.807 314.62C726.808 314.62 728.389 316.202 728.389 318.202L728.436 318.156ZM747.36 318.249C748.014 319.104 749.066 319.598 750.163 319.598C750.954 319.598 751.698 319.272 752.303 318.807C753.001 318.156 753.42 317.225 753.42 316.295C753.42 315.318 753.001 314.434 752.303 313.782C746.348 305.035 736.949 299.313 726.481 297.964C717.781 297.545 709.267 300.476 702.66 306.152C701.962 306.85 701.59 307.734 701.59 308.711C701.59 309.688 701.962 310.619 702.66 311.27C704.056 312.666 706.289 312.666 707.638 311.27C712.802 307.036 719.316 304.803 726.016 304.989C734.763 306.152 742.579 311.084 747.325 318.528L747.36 318.249ZM686.562 379.756H686.608L686.561 380.129C683.491 380.082 680.559 378.826 678.373 376.686C676.326 374.592 675.767 371.428 677.07 368.823C679.35 359.565 680.234 349.98 679.536 340.442C679.35 339.419 679.629 338.349 680.327 337.511C680.978 336.72 682.002 336.255 683.072 336.255C684.142 336.255 685.119 336.72 685.817 337.511C686.468 338.349 686.794 339.419 686.561 340.442C687.445 351.003 686.515 361.565 683.816 371.8H683.863C685.166 373.475 694.703 372.033 703.264 369.055C705.125 368.404 707.172 369.428 707.777 371.289C708.382 373.196 707.405 375.197 705.497 375.848C699.449 378.081 693.029 379.384 686.562 379.756ZM698.984 405.857H694.099L694.099 405.624C692.099 405.392 690.703 403.577 690.936 401.623C691.168 399.669 692.936 398.227 694.937 398.459C703.916 399.436 712.989 397.203 720.526 392.132C725.783 387.712 728.9 381.198 728.993 374.266C729.04 373.335 729.505 372.451 730.25 371.8C730.994 371.195 731.971 370.916 732.902 371.056C733.832 371.149 734.716 371.567 735.321 372.312C735.926 373.01 736.205 373.94 736.112 374.871C735.833 383.757 731.739 392.086 724.946 397.762C717.409 403.252 708.289 406.09 698.984 405.857ZM854.379 403.345C856.287 402.88 858.241 403.996 858.799 405.857L870.701 449.918C887.269 452.895 987.067 472.67 1054.02 535.2C1055.37 536.596 1055.37 538.829 1054.02 540.225C1053.32 540.877 1052.39 541.295 1051.41 541.295C1050.48 541.295 1049.64 540.97 1048.99 540.318H1049.04C982.931 478.625 883.504 459.456 869.082 456.944C858.1 468.947 780.451 552.461 733.646 571.63C727.598 574.328 721.13 575.771 714.57 575.957C708.662 576.004 702.893 574.329 697.914 571.165H697.868C678.141 558.649 676.094 525.802 676.094 524.36C676.047 523.429 676.373 522.499 676.978 521.801C677.629 521.103 678.513 520.684 679.444 520.684C680.374 520.591 681.351 520.87 682.049 521.522C682.794 522.126 683.212 523.057 683.259 523.987L683.212 524.034C683.212 524.266 685.027 554.648 701.683 565.116C710.802 569.955 721.782 569.955 730.901 565.116C775.564 546.645 852.983 464.108 863.824 452.197L851.913 407.765C851.588 406.834 851.727 405.857 852.192 405.02C852.658 404.182 853.449 403.577 854.379 403.345ZM195.25 853.903C176.686 853.903 161.658 835.246 161.658 812.355C161.658 789.371 176.825 770.668 195.25 770.668C213.674 770.668 228.702 789.464 228.702 812.355C228.702 835.2 213.813 853.903 195.25 853.903ZM214.744 440.199C211.766 443.13 207.765 444.805 203.624 444.805C199.39 444.805 195.389 443.13 192.458 440.153C189.48 437.175 187.852 433.174 187.898 428.986V379.157C171.102 371.759 161.797 353.568 165.612 335.656C169.427 317.697 185.246 304.856 203.624 304.856C221.956 304.856 237.774 317.697 241.589 335.656C245.404 353.568 236.099 371.76 219.303 379.157V429.079C219.303 433.267 217.675 437.268 214.744 440.199ZM546.755 423.59H266.76L266.712 423.497C261.874 423.497 257.268 425.405 253.825 428.801C250.429 432.244 248.521 436.896 248.521 441.688V518.549C248.521 528.598 256.663 536.74 266.712 536.74H546.755C556.804 536.74 564.993 528.598 564.993 518.549V441.828C564.993 436.989 563.039 432.337 559.642 428.94C556.2 425.544 551.594 423.59 546.755 423.59ZM266.712 430.755H546.802L546.755 430.615C552.85 430.615 557.828 435.594 557.828 441.689V518.549C557.828 524.644 552.85 529.622 546.755 529.622H266.712C260.617 529.622 255.639 524.644 255.639 518.549V441.828C255.639 435.733 260.617 430.755 266.712 430.755ZM289.84 483.748H272.858L273.184 483.655C271.184 483.655 269.602 482.026 269.602 480.072C269.648 478.118 271.23 476.536 273.184 476.49H290.213L278.302 464.579C277 463.183 277 460.997 278.302 459.554C278.954 458.903 279.884 458.484 280.861 458.484C281.792 458.484 282.722 458.903 283.42 459.554L295.331 471.465V454.436C295.331 452.482 296.913 450.9 298.913 450.9C300.821 450.947 302.403 452.529 302.449 454.436V471.465L314.36 459.554C315.011 458.763 315.942 458.205 316.965 458.159C318.035 458.065 319.013 458.438 319.757 459.182C320.501 459.926 320.874 460.95 320.78 461.974C320.734 462.997 320.222 463.974 319.385 464.579L307.474 476.49H324.13C326.084 476.536 327.666 478.118 327.712 480.072C327.712 482.026 326.13 483.655 324.13 483.655H307.101L319.012 495.565C319.71 496.217 320.082 497.147 320.082 498.124C320.082 499.055 319.71 499.985 319.012 500.683C318.314 501.241 317.43 501.614 316.499 501.614C315.615 501.66 314.685 501.288 314.034 500.683L302.123 488.773V505.801C302.123 507.755 300.495 509.384 298.54 509.384C297.563 509.384 296.633 509.011 295.982 508.36C295.284 507.662 294.912 506.732 294.958 505.801V488.865L283.047 500.776C282.349 501.381 281.465 501.707 280.535 501.753C279.604 501.753 278.674 501.381 277.93 500.776C276.627 499.334 276.627 497.1 277.93 495.658L289.84 483.748ZM361.35 483.748H344.322L345.113 483.655C343.112 483.655 341.53 482.026 341.53 480.072C341.577 478.118 343.159 476.536 345.113 476.49H362.141L350.231 464.579C349.533 463.928 349.161 463.044 349.161 462.067C349.161 461.136 349.533 460.206 350.231 459.554C350.882 458.903 351.813 458.484 352.79 458.484C353.767 458.484 354.697 458.903 355.349 459.554L367.259 471.465V454.436C367.073 453.413 367.352 452.343 368.004 451.505C368.702 450.714 369.725 450.249 370.795 450.249C371.819 450.249 372.842 450.714 373.54 451.505C374.192 452.343 374.471 453.413 374.285 454.436V471.465L386.195 459.554C386.847 458.903 387.777 458.484 388.754 458.484C389.731 458.484 390.662 458.903 391.313 459.554C392.011 460.206 392.383 461.136 392.383 462.067C392.383 463.044 392.011 463.928 391.313 464.579L379.402 476.49H397.036C398.99 476.536 400.526 478.118 400.619 480.072C400.619 482.026 398.99 483.655 397.036 483.655H378.565L390.476 495.565C391.174 496.217 391.546 497.147 391.546 498.124C391.546 499.055 391.174 499.985 390.476 500.683C389.778 501.241 388.894 501.614 387.963 501.614C387.033 501.614 386.102 501.288 385.358 500.683L373.447 488.772V505.801C373.633 506.825 373.354 507.895 372.703 508.732C372.005 509.523 370.981 509.988 369.958 509.988C368.888 509.988 367.864 509.523 367.213 508.732C366.515 507.895 366.236 506.825 366.422 505.801V488.865L354.511 500.776C353.767 501.381 352.836 501.753 351.906 501.753C350.975 501.706 350.091 501.381 349.393 500.776C348.695 500.125 348.323 499.194 348.323 498.217C348.323 497.24 348.695 496.356 349.393 495.658H349.44L361.35 483.748ZM432.814 483.748H415.786L417.042 483.654C415.088 483.654 413.46 482.026 413.46 480.072C413.553 478.118 415.088 476.536 417.042 476.489H434.071L422.16 464.579C421.09 463.137 421.23 461.183 422.486 459.926C423.742 458.67 425.743 458.531 427.185 459.554L439.096 471.465V454.436C439.142 452.529 440.724 450.947 442.632 450.9C444.632 450.9 446.214 452.482 446.214 454.436V471.465L458.125 459.554C458.823 458.903 459.753 458.484 460.684 458.484C461.661 458.484 462.591 458.903 463.242 459.554C464.545 460.997 464.545 463.183 463.242 464.579L451.332 476.49H468.5C470.454 476.536 471.989 478.118 472.082 480.072C472.082 482.026 470.454 483.655 468.5 483.655H450.029L461.939 495.565C463.289 497.008 463.289 499.194 461.939 500.683C461.195 501.288 460.265 501.614 459.334 501.614C458.403 501.614 457.519 501.241 456.822 500.683L444.911 488.772V505.801C444.958 506.732 444.585 507.662 443.887 508.36C443.236 509.011 442.306 509.384 441.329 509.384C439.374 509.384 437.793 507.755 437.793 505.801V488.865L425.882 500.776C425.184 501.427 424.3 501.753 423.369 501.753C422.439 501.706 421.555 501.381 420.857 500.776C420.159 500.125 419.787 499.194 419.787 498.217C419.787 497.24 420.159 496.356 420.857 495.658H420.904L432.814 483.748ZM504.278 483.748H487.249L488.972 483.654C488.041 483.654 487.111 483.282 486.413 482.631C485.761 481.933 485.389 481.003 485.436 480.072C485.436 478.071 487.018 476.49 488.972 476.49H506L494.09 464.579C493.02 463.137 493.206 461.183 494.462 459.926C495.718 458.67 497.672 458.531 499.114 459.554L511.025 471.465V454.436C511.072 452.529 512.653 450.947 514.608 450.9C516.562 450.9 518.19 452.482 518.19 454.436V471.465L530.101 459.554C530.752 458.903 531.683 458.484 532.66 458.484C533.59 458.484 534.521 458.903 535.218 459.554C536.521 460.997 536.521 463.183 535.218 464.579L523.308 476.49H539.964C541.918 476.49 543.546 478.071 543.546 480.072C543.593 481.003 543.22 481.933 542.523 482.631C541.871 483.282 540.941 483.655 539.964 483.655H521.493L533.403 495.565C534.753 497.008 534.753 499.194 533.403 500.683C532.659 501.288 531.728 501.614 530.798 501.614C529.867 501.614 528.983 501.241 528.285 500.683L516.375 488.772V505.801C516.421 506.732 516.049 507.662 515.351 508.36C514.7 509.011 513.769 509.384 512.792 509.384C510.838 509.384 509.256 507.755 509.256 505.801V488.865L497.346 500.776C495.903 502.032 493.763 502.032 492.321 500.776C491.623 500.125 491.251 499.194 491.251 498.217C491.251 497.24 491.623 496.356 492.321 495.658H492.367L504.278 483.748ZM392.987 187.429C384.287 200.596 379.681 216.043 379.634 231.862C379.681 247.588 384.334 262.986 392.987 276.153C392.662 277.503 393.173 278.898 394.29 279.736H395.965C411.133 300.161 435.094 312.211 460.59 312.211C486.039 312.211 510.001 300.16 525.214 279.736H526.517C527.541 278.898 528.053 277.596 527.82 276.293C545.593 249.308 545.593 214.367 527.82 187.429C528.053 186.126 527.541 184.777 526.517 183.986H525.214C510 163.468 486.039 151.418 460.497 151.418C435.001 151.418 411.039 163.468 395.826 183.986H394.29C393.174 184.73 392.662 186.126 392.987 187.429ZM427.277 209.436V209.483L427.045 209.436C431.697 180.172 445.282 158.257 460.636 158.211C475.99 158.211 489.343 180.125 493.996 209.436C473.059 220.277 448.213 220.277 427.277 209.436ZM425.649 231.908C425.649 226.79 425.881 221.812 426.346 216.88V216.834C447.981 227.348 473.291 227.348 494.925 216.834C496.042 226.836 496.042 236.886 494.925 246.842C473.291 236.374 447.981 236.374 426.346 246.842V246.936C425.881 242.004 425.649 236.979 425.649 231.908ZM427.044 254.24C447.981 243.446 472.826 243.446 493.763 254.24C489.111 283.645 475.665 305.466 460.404 305.466C445.143 305.466 431.697 283.645 427.044 254.24ZM419.322 213.251C418.578 219.439 418.205 225.627 418.252 231.861C418.112 238.236 418.392 244.655 419.09 251.029C410.621 256.054 403.177 262.568 397.036 270.198C383.078 246.982 383.078 217.903 397.036 194.687C403.317 202.131 410.854 208.459 419.322 213.251ZM420.858 258.148C422.858 274.432 429.372 289.786 439.654 302.488C424.58 297.882 411.367 288.53 402.062 275.782C407.226 268.849 413.6 262.894 420.858 258.148ZM500.417 258.148C507.721 262.895 514.142 268.849 519.353 275.782C509.861 288.576 496.508 297.928 481.248 302.488C491.624 289.785 498.277 274.432 500.417 258.148ZM523.541 194.687C530.287 205.9 533.916 218.741 534.009 231.861C534.148 245.355 530.519 258.661 523.541 270.199C517.398 262.522 509.955 256.009 501.487 251.03C503.069 238.701 503.069 226.186 501.487 213.856C509.955 208.877 517.399 202.364 523.541 194.687ZM500.417 205.668C498.277 189.337 491.624 173.936 481.248 161.235C496.462 165.794 509.815 175.147 519.353 187.895C514.096 194.827 507.675 200.829 500.417 205.668ZM420.858 205.668C413.46 200.875 406.9 194.873 401.55 187.895C411.181 175.054 424.719 165.701 440.166 161.235C429.651 173.936 422.998 189.337 420.858 205.668Z" fill="black"/>
<path fill-rule="evenodd" clip-rule="evenodd" d="M1069.76 775.085C1067.85 786.995 1066.08 798.906 1064.4 810.817L1064.39 810.898C1051.42 902.571 1039.12 989.478 953.999 997.802C897.563 1003.62 811.072 1007.43 753.424 1009.71C722.437 1011.01 695.406 1012.22 689.219 1013.06C685.124 1018.09 680.286 1022.46 674.796 1025.9C664.653 1032.65 652.789 1036.32 640.6 1036.51C632.411 1036.51 624.269 1034.74 616.778 1031.39C612.544 1029.53 608.171 1027.95 603.704 1026.74V1047.21C603.704 1048.19 603.332 1049.12 602.68 1049.82C601.982 1050.47 601.052 1050.84 600.122 1050.79H41.7631C40.786 1050.84 39.8555 1050.47 39.1576 1049.82C38.5063 1049.12 38.1341 1048.19 38.1806 1047.21C38.1806 1045.26 39.7624 1043.68 41.7631 1043.68H103.457C97.6408 1039.02 93.4535 1032.65 91.5459 1025.44L5.28676 720.646C2.35567 710.178 4.49582 698.918 11.056 690.218C17.6162 681.564 27.8989 676.447 38.7852 676.447H361.301C376.655 676.4 390.194 686.45 394.661 701.105L443.001 860.684V860.73C454.912 852.356 466.357 843.284 477.198 833.56C477.198 833.56 478.407 829.279 480.315 822.952C520.048 685.742 550.661 599.628 571.18 566.635C603.702 514.248 682.191 493.124 698.385 489.356V469.676L598.448 467.396C597.192 467.396 596.075 466.698 595.47 465.628C594.866 464.511 594.866 463.162 595.47 462.045C595.47 461.347 635.855 386.534 595.47 312.233C572.859 270.686 569.602 229.929 586.677 200.525V200.478C600.03 178.146 624.223 164.561 650.277 164.746C656 157.023 683.869 122.361 722.579 118.314C718.67 106.403 710.668 77.6963 726.394 55.4115C739.234 36.476 764.824 27.9146 801.999 29.357C875.742 32.4743 921.105 72.3472 933.016 110.452C939.901 131.9 935.854 150.929 922.315 161.538C908.544 172.843 893.748 182.753 878.115 191.221C886.211 204.807 911.102 253.984 887.746 305.21C874.347 332.474 863.6 360.994 855.736 390.352C855.318 391.701 854.248 392.771 852.852 393.097C851.503 393.283 850.107 392.771 849.269 391.654C847.734 389.514 811.863 338.987 822.47 313.166C822.75 312.514 823.215 311.909 823.773 311.491C823.773 311.491 849.642 293.857 849.642 278.039C849.549 272.409 846.664 267.245 841.919 264.22C837.638 260.126 831.636 258.404 825.82 259.567C810.234 263.755 799.393 289.205 799.253 289.483C798.788 290.693 797.672 291.53 796.415 291.623C795.485 291.623 698.385 304.232 667.674 237.421C658.043 246.121 631.942 268.034 611.935 271.942C611.935 292.925 619.565 415.573 706.615 438.691C744.859 449.066 778.079 426.176 806.645 370.81C807.529 369.089 809.67 368.391 811.391 369.275C812.275 369.693 812.927 370.438 813.206 371.322C813.485 372.206 813.392 373.183 812.973 374.02C783.662 431.665 746.627 456.465 705.777 445.484V492.429C705.731 494.057 704.614 495.499 703.032 495.872C702.102 495.872 611.423 515.878 577.506 570.545C557.361 602.928 527.025 688.582 486.966 825.183C485.432 830.343 484.395 833.987 483.873 835.843C483.7 836.457 483.584 836.875 483.525 837.087L483.524 837.091C483.524 837.092 483.524 837.093 483.523 837.093V837.14C471.566 848.632 458.585 858.96 444.675 867.986L476.824 973.972C477.103 975.74 476.033 977.461 474.311 977.973C472.59 978.485 470.775 977.647 470.031 976.019L438.487 872.033H437.556H437.51C435.928 872.079 434.439 871.102 433.974 869.567C433.462 868.032 434.02 866.357 435.369 865.473L436.3 864.775L387.401 703.243C383.958 691.658 373.396 683.702 361.3 683.61H39.7129C30.9195 683.563 22.6378 687.704 17.3805 694.729C12.1696 701.801 10.5877 710.921 13.1466 719.341L98.8007 1024.28V1024.23C102.197 1036.14 113.084 1044.38 125.46 1044.38H596.669V1025.07C576.477 1021.39 555.772 1021.63 535.673 1025.81C534.789 1026.14 533.812 1026.14 532.928 1025.81C531.02 1024.6 514.691 1013.9 514.596 1001.99C514.829 995.105 518.737 988.963 524.832 985.8C546.374 971.517 602.391 949.231 640.124 959.699C656.92 965.375 675.018 965.98 692.186 961.467C697.211 958.024 814.734 880.604 877.504 871.905C881.784 841.291 919.051 591.171 992.422 547.948C1005.45 538.177 1023.08 537.433 1036.85 546.04C1079.52 574.142 1081.66 699.342 1069.75 774.855L1069.76 775.085ZM996.151 553.436C1006.71 545.108 1021.37 544.27 1032.81 551.296L1032.82 551.068C1071.2 577.116 1074.74 697.062 1062.27 774.249C1060.36 786.153 1058.69 798.058 1057.01 809.962L1057.01 809.981C1044.4 898.849 1032.49 982.689 952.793 990.784C896.682 996.368 810.095 1000.18 752.682 1002.7C687.639 1005.53 682.893 1005.77 682.893 1009.35C667.354 1027.4 642.137 1033.59 619.991 1024.84C614.733 1022.61 609.243 1020.75 603.706 1019.35C603.334 1017.77 601.985 1016.61 600.356 1016.51C599.286 1016.51 598.309 1017.07 597.751 1017.96C588.307 1016.05 578.769 1015.12 569.138 1015.07C557.879 1015.07 546.62 1016.19 535.547 1018.42C530.941 1015.3 521.868 1007.81 521.868 1000.79C522.147 996.367 524.846 992.459 528.894 990.645C553.087 974.686 605.987 956.587 638.369 965.52C656.794 971.987 676.846 972.406 695.503 966.59C696.944 965.753 820.934 884.286 880.487 877.493H881.929C887.048 876.888 892.259 877.121 897.283 878.237C921.71 883.727 945.345 892.242 967.678 903.594C969.399 904.618 971.586 904.059 972.609 902.338C973.633 900.616 973.075 898.43 971.353 897.406C948.601 885.681 924.409 876.888 899.424 871.305C894.817 870.235 890.072 869.863 885.373 870.235C890.119 834.634 927.665 593.449 996.151 553.436Z" fill="black"/>
</svg>
