<?xml version="1.0" encoding="utf-8"?>
<!-- Generator: Adobe Illustrator 27.5.0, SVG Export Plug-In . SVG Version: 6.00 Build 0)  -->
<svg version="1.1" xmlns="http://www.w3.org/2000/svg" xmlns:xlink="http://www.w3.org/1999/xlink" x="0px" y="0px"
	 viewBox="0 0 4500 4500" style="enable-background:new 0 0 4500 4500;" xml:space="preserve">
<g id="_x2018_ëîé_x5F_6">
	<rect style="fill:transparent;" width="4500" height="4500"/>
</g>
<g id="_x2018_ëîé_x5F_7">
	<path style="fill:#2CD997;" d="M3924.156,819.984c-63.959,0-115.994-52.035-115.994-115.995
		c0-63.957,52.035-115.989,115.994-115.989c63.957,0,115.989,52.033,115.989,115.989
		C4040.146,767.949,3988.113,819.984,3924.156,819.984z M3924.156,608c-52.932,0-95.994,43.06-95.994,95.989
		c0,52.932,43.063,95.995,95.994,95.995c52.929,0,95.989-43.063,95.989-95.995C4020.146,651.06,3977.085,608,3924.156,608z"/>
	<path id="XMLID_3_" style="fill:#FFCD1E;" d="M709.646,1193.705c2.433,29.753-19.711,55.84-49.459,58.273
		c-29.753,2.433-55.839-19.71-58.272-49.462c-2.433-29.75,19.709-55.837,49.462-58.27
		C681.124,1141.813,707.213,1163.955,709.646,1193.705z"/>
	<path style="fill:#2CD997;" d="M373.533,1656.436c-22.406-1.731-43.64-10.427-61.104-25.251
		c-21.91-18.597-35.266-44.615-37.609-73.262c-4.835-59.128,39.337-111.167,98.467-116.002
		c59.13-4.836,111.166,39.335,116.002,98.463c4.836,59.131-39.334,111.172-98.462,116.008
		C385.014,1656.866,379.235,1656.877,373.533,1656.436z M388.856,1461.819c-4.571-0.353-9.227-0.35-13.94,0.035
		c-48.139,3.937-84.1,46.302-80.163,94.439c1.907,23.322,12.781,44.504,30.617,59.644s40.504,22.43,63.825,20.52
		c48.137-3.937,84.096-46.304,80.159-94.444C465.804,1498.589,430.979,1465.074,388.856,1461.819z"/>
	<path style="fill:#FFCD1E;" d="M1090.952,3990.273c-33.663,0-61.05-27.388-61.05-61.051c0-33.661,27.387-61.047,61.05-61.047
		c33.662,0,61.048,27.386,61.048,61.047C1152,3962.886,1124.614,3990.273,1090.952,3990.273z M1090.952,3884.176
		c-24.84,0-45.05,20.208-45.05,45.047c0,24.841,20.209,45.051,45.05,45.051c24.839,0,45.048-20.21,45.048-45.051
		C1136,3904.384,1115.791,3884.176,1090.952,3884.176z"/>
	<path style="fill:#EDF5FC;" d="M1063.52,1332.372c-280.741,211.48-515.894,467.704-602.685,778.575
		c-109.396,391.832,19.401,817.46,272.77,1135.145c468.266,587.134,1369.968,810.437,2090.778,517.772
		c727.485-295.375,1146.173-1083.73,1240.558-1802.618c38.918-296.444-3.483-609.929-172.093-857.202
		c-204.123-299.351-575.98-469.269-950.631-492.91c-374.651-23.643-750.627,85.577-1087.033,252.864
		C1604.092,988.858,1315.449,1142.6,1063.52,1332.372z"/>
	<g>
		<g>
			<path style="fill:#2298FF;" d="M2966.914,4158.813c-3.175,0.232-6.004-2.071-6.39-5.265c-0.397-3.291,1.948-6.279,5.237-6.676
				c9.753-1.178,19.04-3.914,27.604-8.13c2.973-1.467,6.57-0.241,8.033,2.731c1.464,2.973,0.241,6.569-2.732,8.033
				c-9.78,4.816-20.367,7.938-31.466,9.279C2967.105,4158.797,2967.01,4158.806,2966.914,4158.813z M3021.217,4131.846
				c-1.624,0.119-3.289-0.419-4.565-1.627c-2.406-2.278-2.51-6.075-0.231-8.481c2.259-2.386,4.406-4.944,6.38-7.601
				c0.023-0.031,0.047-0.063,0.071-0.094c4.394-5.678,9.03-11.006,13.775-15.835c2.322-2.361,6.12-2.397,8.485-0.074
				c2.363,2.323,2.396,6.122,0.073,8.485c-4.403,4.48-8.713,9.434-12.809,14.725c-2.247,3.021-4.69,5.928-7.262,8.644
				C3024.063,4131.118,3022.656,4131.741,3021.217,4131.846z M3065.206,4088.782c-2.113,0.155-4.241-0.816-5.476-2.716
				c-1.805-2.779-1.016-6.495,1.763-8.3c7.684-4.99,15.812-9.146,24.161-12.354c1.644-0.631,3.31-1.23,4.954-1.779
				c3.148-1.046,6.543,0.647,7.593,3.789c1.051,3.143-0.646,6.542-3.789,7.593c-1.477,0.493-2.975,1.031-4.454,1.6
				c-7.569,2.908-14.946,6.681-21.927,11.215C3067.152,4088.4,3066.181,4088.711,3065.206,4088.782z M3154.171,4070.76
				c-0.239,0.018-0.479,0.02-0.724,0.009c-2.428-0.112-4.9-0.275-7.519-0.447c-6.826-0.448-14.563-0.957-22.824-0.577
				c-3.31,0.152-6.117-2.409-6.269-5.719c-0.151-3.31,2.38-6.114,5.719-6.269c8.929-0.409,17.021,0.122,24.16,0.591
				c2.559,0.168,4.976,0.326,7.288,0.434c3.31,0.154,5.868,2.962,5.715,6.272C3159.576,4068.119,3157.157,4070.541,3154.171,4070.76
				z M3184.781,4067.855c-2.867,0.21-5.551-1.672-6.258-4.556c-0.79-3.218,1.18-6.467,4.398-7.256
				c9.327-2.287,18.119-5.879,26.882-10.978c2.865-1.668,6.537-0.698,8.205,2.167c1.667,2.865,0.696,6.537-2.168,8.205
				c-9.77,5.685-19.603,9.696-30.06,12.261C3185.446,4067.779,3185.112,4067.831,3184.781,4067.855z M3238.005,4037.818
				c-1.78,0.13-3.598-0.531-4.888-1.955c-2.225-2.456-2.038-6.251,0.418-8.475c6.583-5.964,13.468-13.063,21.045-21.702
				c2.184-2.49,5.974-2.739,8.468-0.554c2.491,2.185,2.739,5.976,0.554,8.468c-7.884,8.987-15.082,16.406-22.009,22.681
				C3240.561,4037.215,3239.293,4037.724,3238.005,4037.818z M3279.343,3991.879c-1.471,0.108-2.984-0.323-4.219-1.327
				c-2.573-2.088-2.964-5.868-0.875-8.44l1.499-1.847c5.932-7.308,12.066-14.863,18.312-22.148c2.156-2.517,5.945-2.807,8.46-0.649
				s2.806,5.945,0.649,8.461c-6.141,7.161-12.223,14.655-18.105,21.9l-1.501,1.849
				C3282.477,3991.014,3280.935,3991.762,3279.343,3991.879z M3684.808,3934.402c-8.785,0.643-17.909,0.628-27.118-0.044
				c-3.305-0.242-5.789-3.116-5.548-6.421c0.241-3.305,3.119-5.789,6.421-5.548c10.205,0.745,20.231,0.635,29.847-0.347
				c0.057-0.005,0.115-0.01,0.172-0.015c3.227-0.236,6.075,2.138,6.405,5.377c0.335,3.297-2.066,6.24-5.363,6.576
				C3688.045,3934.143,3686.424,3934.284,3684.808,3934.402z M3571.281,3941.933c-7.972,0.583-15.621,0.562-23.384-0.063
				c-3.303-0.267-5.765-3.159-5.499-6.463s3.169-5.764,6.463-5.499c7.145,0.576,14.192,0.594,21.545,0.056
				c2.624-0.192,5.279-0.451,8.117-0.792c0.095-0.012,0.189-0.021,0.283-0.028c3.177-0.232,6.006,2.073,6.39,5.269
				c0.396,3.291-1.951,6.277-5.241,6.673C3576.93,3941.451,3574.093,3941.728,3571.281,3941.933z M3719.683,3927.74
				c-2.689,0.197-5.266-1.449-6.138-4.128c-1.027-3.15,0.697-6.536,3.847-7.562c6.265-2.04,12.26-4.551,17.817-7.464
				c2.646-1.386,5.623-3.088,8.847-5.057c2.824-1.73,6.519-0.838,8.248,1.991c1.728,2.828,0.835,6.52-1.992,8.248
				c-3.448,2.106-6.655,3.938-9.533,5.448c-6.15,3.223-12.77,5.997-19.672,8.243
				C3720.635,3927.614,3720.157,3927.705,3719.683,3927.74z M3610.064,3935.354c-2.809,0.206-5.459-1.598-6.223-4.418
				c-0.725-2.677,0.483-5.423,2.771-6.753c-3.624-1.182-7.219-2.456-10.773-3.818c-3.094-1.186-4.641-4.655-3.455-7.75
				c1.186-3.095,4.653-4.642,7.75-3.455c8.677,3.326,17.613,6.095,26.593,8.244c3.201-1.262,6.343-2.611,9.416-4.045
				c3.001-1.404,6.572-0.105,7.974,2.899c1.402,3.002,0.104,6.573-2.899,7.974c-3.28,1.531-6.632,2.971-10.046,4.319
				c-0.888,0.669-1.959,1.089-3.093,1.188c-5.497,2.055-11.139,3.868-16.88,5.422
				C3610.822,3935.263,3610.442,3935.327,3610.064,3935.354z M3518.372,3936.699c-0.64,0.047-1.299-0.01-1.956-0.181
				c-9.572-2.502-18.816-5.79-29.974-10.658c-3.038-1.325-4.425-4.862-3.1-7.898c1.326-3.039,4.863-4.426,7.898-3.1
				c10.565,4.61,19.265,7.708,28.211,10.047c3.206,0.837,5.125,4.116,4.287,7.323
				C3523.072,3934.781,3520.862,3936.517,3518.372,3936.699z M3320.136,3945.354c-1.712,0.125-3.465-0.481-4.752-1.81
				c-2.305-2.381-2.242-6.18,0.138-8.485c8.298-8.03,16.324-14.683,24.539-20.339c2.728-1.881,6.465-1.192,8.344,1.539
				c1.879,2.729,1.19,6.466-1.54,8.344c-7.661,5.275-15.184,11.516-22.996,19.078
				C3322.817,3944.698,3321.49,3945.254,3320.136,3945.354z M3665.752,3909.126c-1.999,0.146-4.025-0.711-5.292-2.449
				c-1.952-2.677-1.365-6.43,1.313-8.383c8.06-5.877,15.444-12.556,21.949-19.851c2.206-2.474,6-2.689,8.472-0.485
				c2.473,2.205,2.69,5.999,0.485,8.472c-7.07,7.927-15.09,15.181-23.835,21.559
				C3667.905,3908.675,3666.833,3909.048,3665.752,3909.126z M3773.279,3897.337c-2.008,0.147-4.044-0.72-5.309-2.473
				c-1.939-2.687-1.333-6.438,1.354-8.377c8.193-5.913,16.281-12.219,24.041-18.745c2.536-2.132,6.321-1.806,8.454,0.732
				c2.132,2.536,1.805,6.321-0.732,8.454c-7.985,6.714-16.309,13.204-24.74,19.289
				C3775.412,3896.892,3774.349,3897.259,3773.279,3897.337z M3570.424,3907.656c-1.132,0.083-2.299-0.154-3.363-0.75
				c-5.568-3.117-10.997-6.489-16.135-10.023c-3.115-2.143-6.645-4.57-10.355-7.288c-2.674-1.958-3.253-5.713-1.294-8.386
				c1.958-2.672,5.71-3.254,8.386-1.294c3.565,2.611,7.017,4.986,10.064,7.08c4.836,3.327,9.948,6.502,15.195,9.44
				c2.892,1.618,3.924,5.274,2.305,8.166C3574.205,3906.428,3572.367,3907.513,3570.424,3907.656z M3461.118,3913.577
				c-0.924,0.068-1.878-0.078-2.79-0.468c-10.771-4.599-19.436-7.333-28.098-8.862c-3.263-0.576-5.441-3.688-4.865-6.952
				c0.576-3.263,3.688-5.44,6.952-4.865c9.6,1.694,19.076,4.668,30.725,9.643c3.047,1.302,4.463,4.827,3.161,7.875
				C3465.29,3912.083,3463.285,3913.418,3461.118,3913.577z M3371.056,3911.114c-2.558,0.187-5.047-1.293-6.026-3.808
				c-1.203-3.087,0.324-6.566,3.412-7.769c8.331-3.246,17.075-5.631,25.986-7.087c1.789-0.292,3.586-0.548,5.342-0.762
				c3.295-0.419,6.281,1.94,6.682,5.23c0.4,3.289-1.941,6.281-5.231,6.682c-1.596,0.194-3.231,0.427-4.86,0.693
				c-8.083,1.321-16.012,3.482-23.563,6.424C3372.226,3910.941,3371.639,3911.072,3371.056,3911.114z M3820.594,3857.562
				c-1.704,0.125-3.451-0.476-4.737-1.796c-2.313-2.373-2.264-6.172,0.109-8.485c7.302-7.116,14.183-14.338,21.036-22.076
				c2.198-2.48,5.989-2.71,8.469-0.514c2.48,2.197,2.711,5.989,0.514,8.469c-7.05,7.96-14.13,15.39-21.644,22.714
				C3823.288,3856.901,3821.954,3857.462,3820.594,3857.562z M3706.776,3863.417c-1.188,0.087-2.413-0.178-3.513-0.836
				c-2.844-1.701-3.77-5.386-2.07-8.229c5.238-8.757,9.451-17.789,12.521-26.842c1.064-3.138,4.469-4.819,7.609-3.756
				c3.139,1.064,4.819,4.471,3.756,7.608c-3.342,9.857-7.914,19.663-13.586,29.148
				C3710.448,3862.255,3708.659,3863.279,3706.776,3863.417z M3521.314,3870.401c-1.756,0.128-3.552-0.514-4.842-1.905
				c-7.5-8.093-13.839-16.953-18.842-26.336c-1.559-2.923-0.452-6.558,2.472-8.117c2.921-1.559,6.558-0.451,8.117,2.472
				c4.517,8.472,10.255,16.488,17.054,23.823c2.253,2.431,2.108,6.227-0.322,8.48
				C3523.913,3869.78,3522.624,3870.305,3521.314,3870.401z M3862.948,3812.466c-1.733,0.127-3.504-0.496-4.793-1.853
				c-2.281-2.404-2.182-6.201,0.221-8.482c6.86-6.51,14.907-13.407,23.921-20.499c2.605-2.05,6.377-1.599,8.426,1.005
				s1.599,6.377-1.005,8.426c-8.724,6.864-16.488,13.516-23.081,19.772C3865.591,3811.827,3864.281,3812.368,3862.948,3812.466z
				 M3726.095,3805.212c-0.294,0.021-0.594,0.022-0.897-0.002c-3.304-0.249-5.78-3.131-5.53-6.435
				c0.402-5.327,0.41-10.713,0.022-16.007c-0.246-3.358-0.657-6.755-1.221-10.096c-0.173-1.03-0.36-2.047-0.559-3.05
				c-0.646-3.251,1.465-6.409,4.715-7.055c3.259-0.641,6.408,1.466,7.055,4.715c0.222,1.118,0.429,2.248,0.622,3.393
				c0.627,3.709,1.083,7.484,1.356,11.218c0.43,5.885,0.422,11.87-0.025,17.788
				C3731.406,3802.681,3729.009,3804.999,3726.095,3805.212z M3492.362,3816.49c-2.855,0.209-5.531-1.655-6.251-4.526
				c-1.823-7.272-3.017-14.626-3.546-21.858c-0.253-3.452-0.357-6.921-0.309-10.312c0.047-3.314,2.785-5.97,6.084-5.916
				c3.314,0.047,5.962,2.771,5.916,6.083c-0.043,3.044,0.05,6.163,0.278,9.268c0.479,6.544,1.562,13.21,3.218,19.814
				c0.806,3.214-1.146,6.473-4.36,7.28C3493.048,3816.411,3492.703,3816.465,3492.362,3816.49z M3911.34,3773.92
				c-2.037,0.149-4.101-0.747-5.358-2.542c-1.901-2.714-1.243-6.456,1.471-8.357c7.96-5.576,16.671-11.426,25.889-17.384
				c2.785-1.799,6.499-1,8.297,1.782c1.799,2.783,1,6.498-1.782,8.297c-9.094,5.876-17.679,11.641-25.517,17.133
				C3913.42,3773.493,3912.384,3773.844,3911.34,3773.92z M3963.278,3740.22c-2.172,0.159-4.354-0.873-5.565-2.86
				c-1.726-2.829-0.831-6.521,1.998-8.247c9.819-5.988,18.986-11.419,26.657-15.942c2.857-1.685,6.533-0.732,8.216,2.121
				c1.683,2.854,0.734,6.533-2.121,8.216c-7.633,4.5-16.752,9.903-26.503,15.85
				C3965.116,3739.871,3964.198,3740.153,3963.278,3740.22z M3714.259,3745.256c-2.359,0.173-4.697-1.068-5.814-3.318
				c-4.343-8.747-9.971-17.177-16.278-24.374c-2.183-2.493-1.932-6.284,0.559-8.468c2.494-2.184,6.285-1.932,8.468,0.559
				c6.978,7.966,13.203,17.284,18,26.947c1.473,2.968,0.262,6.569-2.707,8.042C3715.769,3745,3715.013,3745.201,3714.259,3745.256z
				 M3493.655,3755.453c-0.755,0.055-1.532-0.033-2.295-0.281c-3.151-1.027-4.872-4.413-3.845-7.564
				c0.384-1.178,0.792-2.36,1.224-3.546c3.305-9.052,7.864-17.65,13.549-25.557c1.935-2.691,5.684-3.303,8.374-1.369
				c2.69,1.934,3.303,5.683,1.368,8.374c-5.045,7.018-9.09,14.644-12.019,22.667c-0.384,1.052-0.747,2.104-1.087,3.149
				C3498.146,3753.713,3496.013,3755.281,3493.655,3755.453z M4016.415,3708.378c-2.101,0.154-4.22-0.805-5.459-2.691
				c-1.819-2.77-1.049-6.49,1.722-8.309c8.155-5.355,15.962-11.62,23.204-18.619c2.384-2.3,6.182-2.239,8.485,0.145
				c2.303,2.383,2.237,6.181-0.145,8.484c-7.78,7.518-16.176,14.253-24.957,20.02
				C4018.381,3707.989,4017.4,3708.306,4016.415,3708.378z M3673.846,3699.373c-1.267,0.093-2.573-0.214-3.719-0.964
				c-8.038-5.26-16.925-9.533-26.414-12.703c-3.143-1.05-4.84-4.449-3.79-7.593c1.05-3.145,4.447-4.839,7.593-3.79
				c10.465,3.496,20.283,8.222,29.182,14.044c2.772,1.814,3.55,5.533,1.736,8.306
				C3677.368,3698.302,3675.646,3699.242,3673.846,3699.373z M3529.003,3705.819c-1.926,0.141-3.884-0.649-5.165-2.282
				c-2.045-2.608-1.589-6.38,1.018-8.424c8.367-6.562,17.707-12.143,27.761-16.587c3.037-1.337,6.574,0.031,7.915,3.063
				c1.339,3.031-0.031,6.573-3.063,7.914c-9.144,4.042-17.625,9.107-25.207,15.053
				C3531.289,3705.319,3530.152,3705.735,3529.003,3705.819z M4060.82,3665.815c-1.386,0.101-2.815-0.276-4.017-1.171
				c-2.658-1.978-3.209-5.737-1.231-8.396c5.75-7.725,11.223-16.245,16.27-25.322c1.61-2.897,5.262-3.938,8.159-2.329
				c2.897,1.61,3.939,5.264,2.329,8.159c-5.302,9.538-11.067,18.507-17.132,26.656
				C4064.115,3664.869,4062.498,3665.693,4060.82,3665.815z M3615.83,3679.681c-0.328,0.024-0.662,0.021-1-0.01
				c-8.877-0.825-15.245-0.48-16.985-0.354l-0.126,0.009c-3.995,0.292-8.069,0.81-12.11,1.537c-3.249,0.586-6.38-1.58-6.969-4.842
				c-0.587-3.261,1.581-6.381,4.841-6.969c4.453-0.802,8.948-1.372,13.361-1.695l0.134-0.01c2.533-0.182,9.44-0.51,18.964,0.374
				c3.3,0.307,5.726,3.23,5.419,6.529C3621.083,3677.213,3618.7,3679.471,3615.83,3679.681z M4091.032,3612.039
				c-0.921,0.067-1.871-0.077-2.78-0.463c-3.05-1.296-4.472-4.819-3.175-7.868c3.802-8.946,7.387-18.526,10.656-28.472
				c1.033-3.147,4.423-4.861,7.573-3.826c3.148,1.034,4.861,4.425,3.826,7.573c-3.373,10.266-7.078,20.164-11.012,29.419
				C4095.211,3610.542,4093.203,3611.88,4091.032,3612.039z M4110.483,3553.407c-0.629,0.046-1.275-0.008-1.92-0.172
				c-3.212-0.818-5.152-4.084-4.333-7.296c2.425-9.518,4.677-19.557,6.692-29.838c0.638-3.251,3.789-5.372,7.043-4.733
				c3.251,0.637,5.371,3.79,4.733,7.042c-2.058,10.499-4.359,20.758-6.84,30.492
				C4115.205,3551.469,4112.986,3553.224,4110.483,3553.407z M4122.474,3492.764c-0.433,0.032-0.876,0.017-1.323-0.049
				c-3.278-0.486-5.542-3.537-5.056-6.815c0.444-2.993,0.873-6.023,1.289-9.094c0.443-3.284,3.466-5.589,6.749-5.142
				c3.284,0.444,5.586,3.466,5.142,6.749c-0.422,3.122-0.859,6.204-1.31,9.246
				C4127.546,3490.489,4125.214,3492.563,4122.474,3492.764z"/>
			<circle style="fill:#2298FF;" cx="4113.978" cy="3308.669" r="159.537"/>
		</g>
		<g>
			<path style="fill:#FFFFFF;" d="M4122.188,3219h-0.028h-11.381h-0.028c-24.033,0-43.584,17.996-43.584,40.116h0.028v30.753h20.347
				v-30.753c0-11.794,10.424-21.388,23.237-21.388h11.381c12.813,0,23.237,9.594,23.237,21.388v30.753h20.347v-30.753h0.029
				C4165.773,3236.996,4146.221,3219,4122.188,3219z"/>
			<path style="fill:#FFFFFF;" d="M4186.192,3385.54c0,7.026-6.143,12.72-13.721,12.72h-112.032c-7.578,0-13.72-5.695-13.72-12.72
				v-87.017c0-7.025,6.142-12.72,13.72-12.72h112.032c7.578,0,13.721,5.695,13.721,12.72V3385.54z"/>
			<g>
				<path style="fill:#2298FF;" d="M4106.908,3335.272c0,4.112,2.833,7.043,3.719,7.859c0.183,0.168,0.361,0.342,0.534,0.522
					c0.307,0.319,0.604,0.598,0.733,0.682c0.166,0.107,0.218,0.675,0.114,1.261l-2.185,12.388c-0.104,0.587,0.265,1.067,0.818,1.067
					h11.661c0.554,0,0.922-0.479,0.819-1.067l-2.185-12.388c-0.104-0.586-0.052-1.155,0.115-1.261
					c0.113-0.073,0.355-0.297,0.62-0.566c0.243-0.247,0.495-0.485,0.752-0.714c0.985-0.877,3.613-3.607,3.613-7.783
					c0-5.695-4.29-10.327-9.563-10.327C4111.197,3324.945,4106.908,3329.577,4106.908,3335.272z"/>
				<path style="fill:#2298FF;" d="M4122.301,3361.478h-11.661c-0.97,0-1.878-0.42-2.492-1.152
					c-0.632-0.753-0.893-1.759-0.716-2.761l2.13-12.073c-0.049-0.049-0.1-0.102-0.153-0.157c-0.137-0.143-0.28-0.281-0.426-0.416
					c-1.057-0.974-4.502-4.545-4.502-9.645c0-7.032,5.378-12.754,11.989-12.754c6.611,0,11.99,5.721,11.99,12.754
					c0,5.104-3.096,8.41-4.427,9.595c-0.231,0.206-0.438,0.403-0.633,0.601c-0.007,0.008-0.015,0.015-0.021,0.022l2.129,12.073
					c0.176,1.004-0.085,2.011-0.717,2.762C4124.178,3361.058,4123.271,3361.478,4122.301,3361.478z M4112.525,3356.625h7.891
					l-1.871-10.607c-0.292-1.655,0.093-2.944,1.084-3.65c0.049-0.042,0.154-0.141,0.309-0.299c0.271-0.276,0.556-0.547,0.871-0.827
					c0.656-0.584,2.8-2.743,2.8-5.97c0-4.357-3.202-7.901-7.138-7.901c-3.935,0-7.137,3.544-7.137,7.901
					c0,3.126,2.248,5.44,2.937,6.075c0.22,0.203,0.436,0.414,0.639,0.625c0.199,0.207,0.338,0.337,0.398,0.391
					c1.339,0.941,1.259,2.686,1.088,3.656L4112.525,3356.625z M4110.564,3346.365c0.006,0.004,0.013,0.008,0.019,0.013
					C4110.577,3346.374,4110.571,3346.37,4110.564,3346.365z M4122.418,3346.34c-0.018,0.012-0.034,0.022-0.047,0.03
					C4122.387,3346.361,4122.402,3346.351,4122.418,3346.34z M4119.709,3342.314c-0.011,0.007-0.022,0.015-0.033,0.022
					C4119.687,3342.329,4119.698,3342.321,4119.709,3342.314z M4113.234,3342.314c0.003,0.002,0.007,0.004,0.01,0.007
					C4113.241,3342.318,4113.238,3342.316,4113.234,3342.314z"/>
			</g>
		</g>
	</g>
	<g>
		<g>
			<g>
				<path style="fill:#2298FF;" d="M2341.539,915.89h-0.331h-132.443h-0.33c-279.676,0-507.204,209.422-507.204,466.843h0.331
					v357.879h236.785v-357.879c0-137.247,121.305-248.9,270.418-248.9h132.443c149.113,0,270.418,111.652,270.418,248.9v357.879
					h236.785v-357.879h0.332C2848.742,1125.312,2621.215,915.89,2341.539,915.89z"/>
				<path style="fill:#101111;" d="M2848.41,1747.612h-236.784c-3.866,0-7-3.134-7-7v-357.879
					c0-133.384-118.169-241.9-263.419-241.9h-132.442c-145.249,0-263.418,108.516-263.418,241.9v357.879c0,3.866-3.134,7-7,7
					h-236.785c-3.866,0-7-3.134-7-7v-355.746c-0.215-0.673-0.331-1.389-0.331-2.133c0-261.278,230.671-473.843,514.205-473.843
					h133.104c283.532,0,514.203,212.565,514.203,473.843c0,0.745-0.116,1.463-0.332,2.136v355.743
					C2855.41,1744.479,2852.276,1747.612,2848.41,1747.612z M2618.626,1733.612h222.784v-350.879c0-0.739,0.114-1.451,0.327-2.12
					c-1.256-252.581-225.16-457.724-500.198-457.724h-133.104c-275.04,0-498.944,205.146-500.199,457.727
					c0.211,0.668,0.326,1.379,0.326,2.117v350.879h222.785v-350.879c0-141.104,124.449-255.9,277.418-255.9h132.442
					c152.97,0,277.419,114.796,277.419,255.9V1733.612z"/>
			</g>
			<g>
				<path style="fill:#2298FF;" d="M3159.689,2959.677c0,89.131-77.933,161.377-174.065,161.377H1564.337
					c-96.132,0-174.054-72.246-174.054-161.377v-1103.93c0-89.12,77.922-161.372,174.054-161.372h1421.286
					c96.132,0,174.065,72.252,174.065,161.372V2959.677z"/>
				<path style="fill:#101111;" d="M2985.624,3128.055H1564.337c-99.833,0-181.054-75.533-181.054-168.377v-1103.93
					c0-92.84,81.221-168.372,181.054-168.372h1421.287c99.84,0,181.065,75.531,181.065,168.372v1103.93
					C3166.689,3052.521,3085.464,3128.055,2985.624,3128.055z M1564.337,1701.376c-92.114,0-167.054,69.251-167.054,154.372v1103.93
					c0,85.124,74.94,154.377,167.054,154.377h1421.287c92.12,0,167.065-69.253,167.065-154.377v-1103.93
					c0-85.121-74.945-154.372-167.065-154.372H1564.337z"/>
			</g>
			<g>
				<path style="fill:#FFFFFF;" d="M2163.691,2329.442c0,47.847,32.974,81.969,43.278,91.463c2.126,1.959,4.201,3.982,6.212,6.078
					c3.565,3.715,7.03,6.964,8.525,7.933c1.936,1.244,2.537,7.858,1.327,14.68l-25.428,144.16
					c-1.204,6.836,3.082,12.415,9.522,12.415h135.703c6.448,0,10.727-5.579,9.529-12.415l-25.427-144.16
					c-1.205-6.823-0.609-13.436,1.333-14.68c1.312-0.85,4.133-3.455,7.213-6.59c2.827-2.878,5.754-5.642,8.753-8.31
					c11.468-10.206,42.049-41.977,42.049-90.574c0-66.27-49.929-120.181-111.298-120.181
					C2213.608,2209.26,2163.691,2263.171,2163.691,2329.442z"/>
				<path style="fill:#101111;" d="M2342.831,2613.171h-135.703c-5.059,0-9.581-2.068-12.733-5.824
					c-3.304-3.938-4.646-9.334-3.683-14.805l25.428-144.162c0.694-3.912,0.577-7.144,0.308-8.657
					c-2.837-2.268-6.627-6.132-8.316-7.892c-1.858-1.937-3.844-3.88-5.904-5.776c-10.683-9.845-45.536-45.902-45.536-96.613
					c0-70.128,53.065-127.181,118.292-127.181c65.229,0,118.298,57.053,118.298,127.181c0,50.81-31.048,83.925-44.396,95.804
					c-2.992,2.662-5.822,5.35-8.411,7.985c-2.097,2.135-4.816,4.791-6.953,6.498c-0.268,1.514-0.385,4.741,0.306,8.649
					l25.428,144.162c0.96,5.481-0.386,10.878-3.691,14.813C2352.411,2611.104,2347.89,2613.171,2342.831,2613.171z
					 M2274.983,2216.26c-57.507,0-104.292,50.773-104.292,113.181c0,45.017,31.398,77.448,41.022,86.316
					c2.27,2.09,4.463,4.237,6.519,6.379c4.097,4.269,6.684,6.501,7.294,6.913c6.879,4.421,5.107,17.78,4.4,21.769l-25.427,144.153
					c-0.244,1.385-0.018,2.615,0.62,3.375c0.465,0.555,1.123,0.824,2.009,0.824h135.703c0.889,0,1.547-0.27,2.012-0.823
					c0.64-0.761,0.866-1.994,0.622-3.384l-25.426-144.152c-0.705-3.99-2.468-17.357,4.452-21.79c0.54-0.366,2.697-2.245,5.995-5.602
					c2.807-2.857,5.866-5.763,9.092-8.634c11.938-10.623,39.703-40.205,39.703-85.345
					C2379.281,2267.033,2332.493,2216.26,2274.983,2216.26z M2217.849,2440.757c0.024,0.016,0.049,0.032,0.074,0.048
					C2217.898,2440.789,2217.873,2440.773,2217.849,2440.757z M2332.165,2440.73c-0.03,0.02-0.06,0.039-0.09,0.059
					C2332.105,2440.77,2332.136,2440.75,2332.165,2440.73z"/>
			</g>
			<g>
				<path style="fill:#FFFFFF;" d="M2342.831,2613.617h-135.703c-5.118,0-9.884-2.181-13.075-5.983
					c-3.39-4.039-4.768-9.568-3.781-15.17l25.428-144.162c0.659-3.712,0.574-6.816,0.334-8.339
					c-2.847-2.302-6.556-6.084-8.226-7.823c-1.845-1.923-3.825-3.86-5.885-5.758c-10.716-9.874-45.679-46.045-45.679-96.94
					c0-70.374,53.266-127.628,118.739-127.628c65.476,0,118.745,57.254,118.745,127.628c0,50.989-31.152,84.217-44.546,96.137
					c-2.982,2.654-5.805,5.333-8.39,7.966c-2.06,2.096-4.72,4.697-6.857,6.424c-0.239,1.522-0.323,4.625,0.331,8.333l25.428,144.16
					c0.983,5.613-0.398,11.141-3.788,15.177C2352.667,2611.494,2348.024,2613.617,2342.831,2613.617z"/>
				<path style="fill:#101111;" d="M2342.831,2620.617h-135.703c-7.192,0-13.913-3.092-18.437-8.483
					c-4.723-5.627-6.659-13.239-5.313-20.884l25.429-144.164c0.26-1.468,0.367-2.758,0.396-3.776
					c-2.456-2.228-4.955-4.771-6.444-6.322c-1.743-1.817-3.62-3.653-5.579-5.459c-11.244-10.36-47.935-48.342-47.935-102.087
					c0-74.234,56.406-134.628,125.739-134.628c69.336,0,125.744,60.394,125.744,134.628c0,53.826-32.793,88.819-46.892,101.366
					c-2.87,2.555-5.579,5.126-8.05,7.642c-1.863,1.896-3.542,3.523-5.02,4.865c0.029,1.018,0.134,2.307,0.393,3.771l25.428,144.16
					c1.342,7.66-0.599,15.273-5.322,20.896C2356.674,2617.607,2350.127,2620.617,2342.831,2620.617z M2274.983,2208.813
					c-61.613,0-111.739,54.113-111.739,120.628c0,48.05,33.236,82.406,43.422,91.791c2.17,2.001,4.253,4.04,6.193,6.062
					c1.418,1.477,4.997,5.141,7.576,7.226c1.348,1.09,2.243,2.641,2.513,4.353c0.452,2.865,0.319,6.848-0.356,10.652
					l-25.427,144.155c-0.626,3.558,0.193,7.004,2.25,9.454c1.858,2.214,4.669,3.483,7.713,3.483h135.703
					c3.134,0,5.802-1.203,7.715-3.48c2.057-2.448,2.878-5.898,2.253-9.467l-25.427-144.152c-0.67-3.8-0.802-7.775-0.353-10.636
					c0.27-1.714,1.166-3.267,2.516-4.357c1.528-1.235,3.694-3.271,6.263-5.886c2.689-2.738,5.627-5.527,8.731-8.29
					c12.688-11.291,42.198-42.751,42.198-90.907C2386.728,2262.927,2336.6,2208.813,2274.983,2208.813z"/>
			</g>
			<g>
				<line style="fill:#FFFFFF;" x1="2255.703" y1="2589.723" x2="2331.831" y2="2589.723"/>
				<path style="fill:#101111;" d="M2331.831,2596.724h-76.128c-3.866,0-7-3.134-7-7s3.134-7,7-7h76.128c3.866,0,7,3.134,7,7
					S2335.697,2596.724,2331.831,2596.724z"/>
			</g>
			<g>
				<path style="fill:#FFFFFF;" d="M2286.983,2226.707c-57.26,0-103.845,50.573-103.845,112.734"/>
				<path style="fill:#101111;" d="M2183.138,2346.441c-3.866,0-7-3.134-7-7c0-66.021,49.725-119.734,110.845-119.734
					c3.866,0,7,3.134,7,7s-3.134,7-7,7c-53.4,0-96.845,47.433-96.845,105.734
					C2190.138,2343.308,2187.004,2346.441,2183.138,2346.441z"/>
			</g>
			<path style="fill:#101111;" d="M3097.696,2845.249c-3.866,0-7-3.134-7-7v-793.93c0-3.866,3.134-7,7-7s7,3.134,7,7v793.93
				C3104.696,2842.115,3101.563,2845.249,3097.696,2845.249z"/>
			<path style="fill:#101111;" d="M1440.291,2186.254c-3.866,0-7-3.134-7-7v-277.935c0-92.84,81.221-168.372,181.054-168.372
				h226.509c3.866,0,7,3.134,7,7s-3.134,7-7,7h-226.509c-92.114,0-167.054,69.251-167.054,154.372v277.935
				C1447.291,2183.12,1444.157,2186.254,1440.291,2186.254z"/>
			<g>
				<path style="fill:#FFFFFF;" d="M2217.609,2441.133c0.023,0.016,0.047,0.031,0.071,0.047
					C2217.656,2441.164,2217.633,2441.149,2217.609,2441.133z"/>
				<path style="fill:#101111;" d="M2217.673,2448.181c-1.313,0-2.641-0.369-3.821-1.14c-0.007-0.005-0.024-0.017-0.044-0.029
					c-0.015-0.011-0.031-0.021-0.048-0.032c-0.015-0.01-0.027-0.019-0.033-0.022c-0.04-0.026-0.079-0.053-0.108-0.073
					c-3.155-2.189-3.957-6.513-1.797-9.688c2.16-3.176,6.475-4.021,9.671-1.888c0.042,0.027,0.096,0.063,0.127,0.085
					c3.174,2.161,4.015,6.476,1.884,9.67C2222.156,2447.085,2219.936,2448.181,2217.673,2448.181z M2217.609,2441.133h0.01H2217.609
					z"/>
			</g>
			<g>
				<path style="fill:#FFFFFF;" d="M2332.413,2441.102c-0.032,0.021-0.064,0.042-0.096,0.063
					C2332.349,2441.144,2332.381,2441.123,2332.413,2441.102z"/>
				<path style="fill:#101111;" d="M2332.323,2448.166c-2.28,0-4.514-1.112-5.857-3.158c-2.112-3.216-1.233-7.533,1.968-9.667
					c0.021-0.014,0.089-0.06,0.11-0.072l0,0c0.038-0.025,0.101-0.065,0.111-0.072c3.235-2.062,7.528-1.131,9.623,2.085
					c2.095,3.215,1.21,7.517-1.982,9.645c-0.021,0.014-0.089,0.06-0.11,0.072c-0.026,0.018-0.055,0.036-0.066,0.044
					C2334.944,2447.803,2333.626,2448.166,2332.323,2448.166z M2335.687,2446.245l0.484,0.762L2335.687,2446.245z"/>
			</g>
			<path style="fill:#101111;" d="M2799.508,1433.777c-0.203,0-0.408-0.009-0.614-0.027c-3.852-0.335-6.702-3.729-6.367-7.581
				c5.005-57.501-2.905-114.456-23.51-169.281c-19.958-53.106-50.786-101.64-91.629-144.253
				c-94.854-98.966-231.469-152.084-374.78-145.708c-0.104,0.004-0.207,0.007-0.311,0.007h-0.331c-3.866,0-7-3.134-7-7s3.134-7,7-7
				h0.177c147.292-6.504,287.744,48.175,385.353,150.015c42.161,43.989,73.998,94.125,94.627,149.015
				c21.346,56.799,29.539,115.819,24.352,175.42C2806.156,1431.028,2803.1,1433.777,2799.508,1433.777z"/>
		</g>
		<g>
			<g>
				<path style="fill:#FFCD1E;" d="M3555.279,3043.128l-1719.343,386.615c-158.4,35.618-315.683-63.916-351.301-222.317l0,0
					c-35.618-158.4,63.916-315.683,222.317-351.302l1719.343-386.615c158.4-35.618,315.683,63.916,351.302,222.317l0,0
					C3813.213,2850.227,3713.679,3007.51,3555.279,3043.128z"/>
				<path style="fill:#101111;" d="M1770.857,3444.013c-56.324,0-111.604-15.901-160.359-46.756
					c-67.932-42.99-115.057-109.861-132.694-188.294c-17.637-78.435-3.674-159.042,39.315-226.975
					c42.99-67.932,109.861-115.057,188.295-132.693l1719.344-386.614c78.433-17.637,159.039-3.675,226.972,39.315
					c67.933,42.989,115.057,109.861,132.693,188.294c17.637,78.435,3.675,159.042-39.315,226.974s-109.86,115.057-188.295,132.693
					l-1.535-6.829l1.535,6.829l-1719.342,386.615C1815.331,3441.551,1793.011,3444.013,1770.857,3444.013z M3491.345,2469.246
					c-21.128,0-42.399,2.345-63.516,7.093l-1719.343,386.614c-74.785,16.816-138.546,61.749-179.536,126.521
					s-54.303,141.63-37.487,216.415c16.816,74.786,61.75,138.546,126.521,179.537c64.772,40.99,141.629,54.304,216.415,37.487
					l1719.343-386.615c74.785-16.816,138.545-61.749,179.535-126.521s54.304-141.63,37.487-216.415
					c-16.816-74.786-61.749-138.546-126.521-179.536C3597.761,2484.409,3545.044,2469.246,3491.345,2469.246z"/>
			</g>
			<g>
				<path style="fill:#FFFFFF;" d="M2029.744,3172.664c-7.436,10.486-17.373,17.128-29.798,19.922
					c-9.948,2.237-19.407,0.124-28.362-6.355c-8.966-6.461-14.562-14.675-16.799-24.624c-1.956-8.696,0.357-18.69,6.972-29.97
					c6.6-11.277,24.848-24.516,54.726-39.729c-33.039-1.705-55.074-6.055-66.104-13.047c-11.041-6.975-17.533-14.819-19.491-23.529
					c-2.234-9.935-0.693-19.754,4.641-29.447c5.323-9.674,12.964-15.645,22.912-17.882c12.425-2.794,24.216-1.192,35.353,4.781
					c11.141,5.989,24.73,12.727,40.782,20.212c-3.768-10.905-7.582-20.652-11.474-29.249c-3.888-8.583-6.602-16.297-8.142-23.144
					c-2.794-12.424-1.801-23.253,2.976-32.499c4.78-9.231,13.067-15.181,24.881-17.837c12.425-2.794,22.892-1.23,31.415,4.689
					c8.509,5.922,14.169,15.102,16.963,27.526c1.818,8.084,2.488,16.917,2.036,26.476c-0.463,9.576,0.179,19.715,1.942,30.413
					c11.636-15.012,21.427-27.344,29.393-36.971c7.952-9.622,17.528-15.692,28.715-18.208c9.934-2.234,19.395-0.108,28.361,6.353
					c8.956,6.48,14.566,14.691,16.8,24.626c1.958,8.709-0.712,18.613-8.01,29.712c-7.295,11.113-25.507,24.512-54.621,40.194
					c32.887,1.099,55.046,5.252,66.465,12.478c11.418,7.225,18.108,15.195,20.063,23.891c2.237,9.948,0.681,19.771-4.642,29.445
					c-5.334,9.692-12.977,15.651-22.911,17.885c-11.187,2.516-22.473,0.982-33.85-4.63c-11.389-5.597-25.549-12.696-42.494-21.296
					c2.989,10.437,6.749,19.875,11.264,28.318c4.504,8.459,7.679,16.728,9.494,24.797c2.797,12.44,1.644,23.304-3.442,32.603
					c-5.097,9.319-13.854,15.358-26.279,18.152c-11.813,2.656-21.846,0.843-30.121-5.47c-8.272-6.295-13.804-15.656-16.601-28.096
					c-1.677-7.457-2.595-15.897-2.759-25.332c-0.16-9.422-0.889-19.877-2.151-31.346
					C2046.543,3150.124,2037.18,3162.177,2029.744,3172.664z"/>
				<path style="fill:#101111;" d="M2099.395,3234.905c-9.09,0-17.225-2.704-24.286-8.091c-9.573-7.285-16.03-18.096-19.185-32.125
					c-1.772-7.883-2.757-16.882-2.928-26.748c-0.073-4.277-0.27-8.841-0.589-13.661c-6.501,8.188-12.176,15.696-16.953,22.433
					c0,0,0,0,0,0.001c-8.433,11.891-19.863,19.528-33.973,22.701c-11.957,2.69-23.395,0.16-34.001-7.514
					c-10.337-7.448-16.91-17.127-19.526-28.759c-2.352-10.46,0.26-22.251,7.763-35.047c5.552-9.486,17.66-19.728,36.782-31.059
					c-21.612-2.413-36.719-6.464-45.869-12.265c-12.602-7.961-20.2-17.352-22.573-27.905c-2.611-11.614-0.816-23.174,5.337-34.356
					c6.313-11.474,15.568-18.652,27.509-21.337c14.051-3.159,27.575-1.329,40.198,5.44c7.24,3.893,15.596,8.138,24.963,12.684
					c-1.782-4.512-3.565-8.742-5.341-12.665c-4.066-8.977-6.958-17.218-8.594-24.494c-3.151-14.012-1.944-26.544,3.586-37.248
					c5.758-11.121,15.704-18.337,29.564-21.453c14.353-3.229,26.782-1.288,36.943,5.768c9.963,6.935,16.623,17.612,19.8,31.74
					c1.94,8.627,2.68,18.163,2.198,28.342c-0.191,3.946-0.181,8.019,0.03,12.195c7.271-9.245,13.518-17.019,18.919-23.547
					c8.923-10.797,19.883-17.72,32.573-20.573c11.923-2.684,23.358-0.158,33.989,7.503c10.361,7.496,16.93,17.173,19.538,28.77
					c2.381,10.591-0.643,22.398-8.99,35.094c-6.037,9.194-18.134,19.354-36.743,30.813c21.692,2.102,37,6.098,46.48,12.097
					c12.991,8.221,20.78,17.732,23.149,28.27c2.611,11.613,0.814,23.173-5.339,34.355c-6.314,11.476-15.569,18.655-27.508,21.34
					c-12.755,2.866-25.702,1.124-38.483-5.183c-7.744-3.805-16.702-8.271-27.127-13.522c1.591,3.845,3.316,7.507,5.167,10.966
					c4.802,9.021,8.214,17.953,10.151,26.563c3.166,14.083,1.776,26.699-4.131,37.498c-6.073,11.104-16.464,18.38-30.884,21.622
					C2106.985,3234.453,2103.11,3234.905,2099.395,3234.905z M2057.843,3129.474c0.669,0,1.345,0.096,2.007,0.294
					c2.693,0.807,4.643,3.146,4.95,5.94c1.294,11.754,2.032,22.519,2.193,31.993c0.154,8.914,1.025,16.961,2.589,23.917
					c2.446,10.877,7.029,18.747,14.011,24.061c6.6,5.035,14.562,6.408,24.347,4.211c10.468-2.354,17.558-7.156,21.673-14.682
					c4.285-7.833,5.186-16.896,2.754-27.709c-1.661-7.389-4.637-15.142-8.843-23.044c-4.731-8.845-8.708-18.834-11.815-29.679
					c-0.767-2.677,0.126-5.554,2.273-7.326c2.146-1.772,5.14-2.104,7.624-0.844c17.258,8.758,31.132,15.711,42.414,21.255
					c9.985,4.926,19.543,6.259,29.228,4.084c7.966-1.792,13.957-6.513,18.313-14.431c4.52-8.214,5.811-16.24,3.945-24.535
					c-1.525-6.783-7.237-13.348-16.977-19.511c-7.074-4.476-23.738-10.086-62.956-11.396c-3.161-0.105-5.859-2.318-6.581-5.397
					c-0.722-3.08,0.71-6.262,3.496-7.762c34.812-18.75,47.541-30.944,52.089-37.872c6.183-9.404,8.548-17.591,7.031-24.336
					c-1.862-8.282-6.466-14.984-14.074-20.49c-7.33-5.282-14.765-6.982-22.721-5.194c-9.726,2.188-17.856,7.367-24.855,15.837
					c-7.773,9.395-17.342,21.431-29.255,36.8c-1.706,2.2-4.552,3.182-7.251,2.498c-2.699-0.684-4.736-2.901-5.188-5.647
					c-1.832-11.113-2.514-21.842-2.027-31.89c0.422-8.918-0.208-17.198-1.874-24.602c-2.418-10.754-7.041-18.381-14.132-23.316
					c-6.897-4.788-15.364-5.97-25.88-3.604c-9.774,2.198-16.382,6.852-20.2,14.227c-4.032,7.804-4.806,16.881-2.362,27.744
					c1.427,6.349,4.014,13.68,7.688,21.791c3.919,8.657,7.86,18.7,11.714,29.852c0.918,2.656,0.158,5.604-1.929,7.485
					c-2.088,1.882-5.099,2.333-7.646,1.145c-16.055-7.486-29.896-14.347-41.138-20.39c-9.7-5.202-19.68-6.548-30.503-4.117
					c-7.968,1.792-13.959,6.512-18.315,14.428c-4.52,8.214-5.81,16.24-3.944,24.536c1.528,6.795,7.045,13.237,16.4,19.146
					c6.85,4.343,23.284,9.939,62.726,11.976c3.166,0.163,5.826,2.433,6.486,5.533s-0.846,6.257-3.671,7.695
					c-35.544,18.097-47.821,30.123-51.861,37.026c-5.652,9.639-7.731,18.014-6.184,24.898c1.868,8.309,6.468,15.008,14.062,20.48
					c7.323,5.298,14.753,6.997,22.735,5.204c10.78-2.424,19.163-8.031,25.623-17.141l0,0c7.467-10.531,17.028-22.847,28.417-36.605
					C2053.802,3130.377,2055.792,3129.474,2057.843,3129.474z M2029.744,3172.664h0.01H2029.744z"/>
			</g>
			<g>
				<path style="fill:#FFFFFF;" d="M2393.014,3090.979c-7.436,10.486-17.374,17.128-29.798,19.921
					c-9.949,2.237-19.407,0.124-28.362-6.355c-8.966-6.461-14.562-14.675-16.799-24.624c-1.956-8.696,0.357-18.69,6.972-29.97
					c6.6-11.277,24.848-24.516,54.726-39.729c-33.039-1.705-55.074-6.055-66.104-13.047c-11.041-6.976-17.533-14.819-19.491-23.529
					c-2.234-9.935-0.693-19.754,4.641-29.447c5.323-9.674,12.964-15.645,22.912-17.882c12.425-2.794,24.216-1.192,35.353,4.781
					c11.141,5.989,24.729,12.726,40.782,20.211c-3.768-10.905-7.582-20.652-11.474-29.249c-3.888-8.583-6.602-16.297-8.142-23.144
					c-2.794-12.424-1.801-23.253,2.976-32.499c4.78-9.231,13.067-15.181,24.881-17.837c12.425-2.794,22.892-1.23,31.415,4.688
					c8.509,5.922,14.169,15.102,16.963,27.526c1.818,8.084,2.488,16.917,2.036,26.476c-0.463,9.576,0.179,19.715,1.942,30.413
					c11.636-15.011,21.427-27.344,29.393-36.97c7.952-9.622,17.528-15.692,28.715-18.208c9.934-2.234,19.395-0.108,28.361,6.353
					c8.956,6.48,14.566,14.691,16.8,24.626c1.958,8.709-0.712,18.613-8.01,29.712c-7.295,11.113-25.507,24.512-54.621,40.194
					c32.888,1.099,55.046,5.252,66.465,12.478c11.419,7.226,18.108,15.195,20.063,23.891c2.237,9.949,0.681,19.771-4.642,29.445
					c-5.334,9.692-12.977,15.651-22.911,17.885c-11.187,2.515-22.473,0.982-33.85-4.63c-11.389-5.597-25.549-12.696-42.494-21.296
					c2.989,10.437,6.749,19.875,11.264,28.318c4.504,8.459,7.679,16.728,9.494,24.797c2.797,12.44,1.644,23.304-3.442,32.603
					c-5.097,9.319-13.854,15.358-26.279,18.152c-11.813,2.656-21.847,0.843-30.121-5.47c-8.272-6.295-13.804-15.656-16.601-28.096
					c-1.677-7.457-2.595-15.897-2.759-25.332c-0.16-9.422-0.889-19.877-2.152-31.347
					C2409.813,3068.438,2400.45,3080.491,2393.014,3090.979z"/>
				<path style="fill:#101111;" d="M2462.665,3153.22c-9.091,0.001-17.225-2.704-24.286-8.091
					c-9.574-7.286-16.03-18.097-19.185-32.127c-1.772-7.883-2.758-16.882-2.929-26.746c-0.072-4.278-0.27-8.842-0.589-13.661
					c-6.5,8.187-12.176,15.696-16.953,22.433l0,0c-8.433,11.892-19.862,19.529-33.972,22.702
					c-11.959,2.688-23.396,0.159-34.001-7.513c-10.338-7.449-16.911-17.128-19.526-28.76c-2.353-10.46,0.26-22.251,7.763-35.047
					c5.553-9.487,17.658-19.727,36.783-31.059c-21.615-2.414-36.721-6.465-45.87-12.265c-12.603-7.961-20.2-17.352-22.572-27.905
					c-2.612-11.614-0.817-23.174,5.337-34.357c6.313-11.473,15.568-18.651,27.509-21.336c14.052-3.159,27.575-1.329,40.197,5.44
					c7.238,3.892,15.595,8.137,24.964,12.685c-1.781-4.513-3.566-8.744-5.342-12.665c-4.067-8.979-6.959-17.222-8.594-24.496
					c-3.151-14.01-1.944-26.542,3.586-37.247c5.759-11.121,15.704-18.337,29.564-21.453c14.35-3.228,26.783-1.288,36.943,5.768
					c9.963,6.935,16.622,17.611,19.799,31.739c1.94,8.629,2.68,18.165,2.198,28.343c-0.19,3.947-0.181,8.02,0.03,12.195
					c7.265-9.237,13.511-17.01,18.919-23.547c8.923-10.797,19.882-17.72,32.572-20.573c11.923-2.683,23.358-0.158,33.989,7.502
					c10.361,7.499,16.932,17.176,19.537,28.771c2.383,10.59-0.643,22.397-8.99,35.093c-6.036,9.195-18.13,19.354-36.741,30.814
					c21.691,2.102,37.001,6.099,46.479,12.097c12.992,8.221,20.78,17.732,23.149,28.271c2.612,11.612,0.816,23.171-5.338,34.354
					c-6.315,11.477-15.571,18.655-27.509,21.339c-12.751,2.869-25.7,1.125-38.482-5.182c-7.754-3.811-16.714-8.276-27.127-13.522
					c1.591,3.844,3.315,7.506,5.166,10.967c4.802,9.019,8.215,17.952,10.15,26.563c3.166,14.082,1.776,26.698-4.13,37.498
					c-6.073,11.104-16.465,18.38-30.884,21.622C2470.257,3152.768,2466.38,3153.22,2462.665,3153.22z M2421.114,3047.788
					c0.669,0,1.345,0.096,2.007,0.294c2.693,0.807,4.643,3.146,4.95,5.94c1.294,11.75,2.031,22.515,2.192,31.993
					c0.154,8.913,1.025,16.96,2.589,23.916c2.446,10.877,7.028,18.748,14.011,24.062c6.601,5.034,14.563,6.407,24.348,4.211
					c10.467-2.354,17.557-7.156,21.672-14.682c4.284-7.834,5.186-16.897,2.755-27.709c-1.662-7.389-4.638-15.142-8.844-23.044
					c-4.732-8.849-8.709-18.838-11.814-29.679c-0.767-2.677,0.126-5.554,2.273-7.326c2.146-1.772,5.143-2.104,7.624-0.844
					c17.237,8.748,31.111,15.7,42.413,21.255c9.985,4.926,19.543,6.261,29.228,4.083c7.966-1.791,13.956-6.511,18.314-14.43
					c4.52-8.215,5.811-16.24,3.945-24.534c-1.525-6.784-7.237-13.349-16.978-19.512c-7.073-4.476-23.736-10.086-62.954-11.396
					c-3.162-0.105-5.859-2.318-6.582-5.397c-0.722-3.08,0.711-6.262,3.496-7.762c34.812-18.75,47.54-30.944,52.088-37.872
					c6.184-9.405,8.549-17.591,7.032-24.335c-1.862-8.282-6.466-14.985-14.074-20.491c-7.331-5.282-14.768-6.982-22.722-5.194
					c-9.727,2.188-17.856,7.368-24.854,15.837c-7.787,9.41-17.356,21.447-29.257,36.8c-1.705,2.2-4.556,3.183-7.25,2.498
					c-2.699-0.684-4.736-2.901-5.189-5.647c-1.831-11.108-2.513-21.837-2.027-31.89c0.422-8.918-0.208-17.197-1.872-24.603
					c-2.419-10.753-7.041-18.38-14.133-23.315c-6.896-4.789-15.365-5.969-25.88-3.604c-9.774,2.198-16.382,6.852-20.201,14.227
					c-4.031,7.804-4.805,16.881-2.362,27.744c1.427,6.347,4.014,13.678,7.688,21.791c3.92,8.656,7.86,18.699,11.715,29.852
					c0.918,2.656,0.158,5.604-1.93,7.485c-2.088,1.883-5.099,2.333-7.645,1.145c-16.059-7.487-29.899-14.348-41.139-20.391
					c-9.7-5.201-19.682-6.548-30.502-4.116c-7.969,1.792-13.96,6.512-18.315,14.428c-4.52,8.214-5.81,16.239-3.944,24.536
					c1.528,6.795,7.046,13.237,16.4,19.146c6.85,4.342,23.282,9.938,62.727,11.976c3.165,0.163,5.825,2.433,6.485,5.533
					s-0.846,6.257-3.671,7.695c-35.544,18.097-47.821,30.123-51.861,37.026c-5.651,9.639-7.731,18.014-6.184,24.898
					c1.869,8.309,6.469,15.008,14.063,20.479c7.324,5.299,14.76,6.999,22.735,5.205c10.781-2.424,19.163-8.031,25.623-17.141
					c7.469-10.533,17.029-22.849,28.417-36.605C2417.073,3048.691,2419.063,3047.788,2421.114,3047.788z M2393.014,3090.979h0.01
					H2393.014z"/>
			</g>
			<g>
				<path style="fill:#FFFFFF;" d="M2756.284,3009.293c-7.436,10.486-17.373,17.128-29.798,19.922
					c-9.948,2.237-19.407,0.124-28.362-6.355c-8.966-6.461-14.562-14.675-16.799-24.624c-1.956-8.696,0.357-18.689,6.972-29.97
					c6.6-11.277,24.848-24.516,54.726-39.729c-33.039-1.706-55.074-6.055-66.104-13.047c-11.041-6.975-17.533-14.819-19.491-23.529
					c-2.234-9.935-0.693-19.754,4.641-29.447c5.323-9.675,12.964-15.645,22.912-17.882c12.425-2.794,24.216-1.192,35.353,4.781
					c11.141,5.989,24.729,12.727,40.782,20.212c-3.769-10.905-7.582-20.652-11.474-29.249c-3.888-8.583-6.602-16.297-8.142-23.144
					c-2.794-12.424-1.801-23.253,2.976-32.499c4.78-9.231,13.068-15.181,24.881-17.837c12.425-2.794,22.892-1.23,31.415,4.689
					c8.509,5.922,14.169,15.102,16.963,27.526c1.818,8.084,2.488,16.917,2.036,26.476c-0.463,9.576,0.179,19.715,1.942,30.413
					c11.636-15.012,21.427-27.344,29.392-36.97c7.952-9.622,17.528-15.692,28.715-18.208c9.934-2.234,19.395-0.108,28.361,6.353
					c8.956,6.48,14.566,14.691,16.8,24.626c1.958,8.71-0.712,18.614-8.01,29.712c-7.295,11.113-25.507,24.512-54.621,40.194
					c32.887,1.099,55.046,5.252,66.465,12.478s18.108,15.195,20.063,23.891c2.237,9.949,0.681,19.771-4.642,29.445
					c-5.334,9.692-12.977,15.651-22.911,17.884c-11.187,2.516-22.473,0.982-33.85-4.63c-11.389-5.597-25.549-12.696-42.494-21.296
					c2.989,10.437,6.749,19.875,11.264,28.318c4.503,8.459,7.679,16.728,9.494,24.797c2.797,12.44,1.644,23.304-3.442,32.603
					c-5.097,9.319-13.854,15.358-26.279,18.152c-11.813,2.656-21.847,0.843-30.121-5.47c-8.272-6.295-13.804-15.656-16.601-28.096
					c-1.677-7.457-2.595-15.897-2.759-25.332c-0.16-9.422-0.889-19.877-2.151-31.347
					C2773.083,2986.752,2763.72,2998.806,2756.284,3009.293z"/>
				<path style="fill:#101111;" d="M2825.935,3071.534c-9.09,0-17.225-2.704-24.286-8.091c-9.572-7.285-16.029-18.096-19.185-32.126
					c-1.772-7.881-2.757-16.879-2.928-26.747c-0.072-4.276-0.27-8.84-0.589-13.662c-6.501,8.188-12.177,15.698-16.953,22.434
					c0,0,0,0,0,0.001c-8.434,11.891-19.864,19.528-33.973,22.701c-11.954,2.687-23.395,0.159-34.001-7.513
					c-10.337-7.449-16.91-17.128-19.525-28.76c-2.353-10.459,0.259-22.25,7.763-35.047c5.552-9.487,17.657-19.727,36.782-31.06
					c-21.615-2.413-36.72-6.463-45.87-12.264c-12.602-7.963-20.199-17.353-22.572-27.904c-2.611-11.616-0.815-23.175,5.337-34.357
					c6.313-11.475,15.569-18.653,27.51-21.337c14.048-3.16,27.573-1.328,40.197,5.44c7.236,3.891,15.594,8.137,24.964,12.685
					c-1.781-4.51-3.565-8.741-5.342-12.666c-4.067-8.979-6.959-17.221-8.594-24.495c-3.151-14.012-1.944-26.544,3.586-37.247
					c5.757-11.121,15.703-18.337,29.564-21.453c14.352-3.228,26.783-1.287,36.942,5.769c9.962,6.932,16.622,17.609,19.799,31.738
					c1.94,8.628,2.681,18.163,2.199,28.343c-0.191,3.945-0.181,8.019,0.029,12.195c7.273-9.247,13.52-17.021,18.919-23.547
					c8.925-10.799,19.886-17.722,32.574-20.573c11.923-2.685,23.358-0.158,33.988,7.503c10.36,7.496,16.93,17.173,19.537,28.769
					c2.382,10.593-0.643,22.399-8.99,35.094c-6.035,9.195-18.13,19.354-36.742,30.814c21.691,2.102,37.001,6.098,46.48,12.097
					c12.991,8.221,20.779,17.732,23.149,28.27c2.611,11.613,0.814,23.173-5.339,34.355c-6.316,11.477-15.571,18.655-27.509,21.339
					c-12.749,2.87-25.698,1.125-38.481-5.182c-7.744-3.805-16.703-8.271-27.128-13.522c1.591,3.844,3.316,7.506,5.167,10.966
					c4.8,9.016,8.213,17.949,10.15,26.563c3.166,14.082,1.776,26.698-4.13,37.498c-6.073,11.104-16.465,18.38-30.885,21.622
					C2833.525,3071.082,2829.649,3071.534,2825.935,3071.534z M2784.384,2966.103c0.669,0,1.345,0.096,2.007,0.294
					c2.693,0.807,4.643,3.146,4.95,5.94c1.294,11.758,2.032,22.521,2.193,31.993c0.154,8.916,1.025,16.963,2.588,23.916
					c2.447,10.877,7.03,18.748,14.012,24.062c6.599,5.034,14.563,6.409,24.346,4.211c10.469-2.354,17.559-7.157,21.674-14.682
					c4.284-7.834,5.186-16.897,2.755-27.709c-1.663-7.392-4.639-15.145-8.844-23.044c-4.732-8.848-8.71-18.838-11.815-29.68
					c-0.767-2.677,0.126-5.554,2.273-7.326c2.146-1.773,5.142-2.104,7.624-0.844c17.258,8.759,31.132,15.711,42.414,21.256
					c9.987,4.928,19.548,6.261,29.227,4.083c7.966-1.791,13.956-6.511,18.314-14.43c4.52-8.214,5.811-16.24,3.946-24.535
					c-1.526-6.782-7.238-13.348-16.978-19.511c-7.073-4.476-23.737-10.086-62.955-11.396c-3.162-0.105-5.859-2.318-6.582-5.397
					c-0.722-3.08,0.711-6.262,3.496-7.762c34.813-18.751,47.541-30.945,52.089-37.872c6.184-9.404,8.548-17.591,7.032-24.336
					c-1.863-8.282-6.467-14.984-14.075-20.49c-7.33-5.282-14.767-6.982-22.721-5.194c-9.726,2.187-17.855,7.366-24.856,15.837
					c-7.771,9.392-17.339,21.428-29.256,36.801c-1.705,2.199-4.552,3.182-7.251,2.497c-2.698-0.684-4.735-2.901-5.188-5.648
					c-1.831-11.114-2.513-21.843-2.026-31.89c0.422-8.918-0.208-17.197-1.873-24.601c-2.419-10.755-7.041-18.382-14.132-23.315
					c-6.896-4.791-15.365-5.97-25.88-3.605c-9.775,2.198-16.383,6.852-20.2,14.227c-4.032,7.803-4.806,16.88-2.363,27.744
					c1.427,6.347,4.014,13.678,7.688,21.791c3.925,8.669,7.865,18.712,11.714,29.852c0.918,2.656,0.158,5.604-1.93,7.485
					c-2.087,1.882-5.096,2.335-7.645,1.145c-16.061-7.489-29.901-14.35-41.138-20.391c-9.703-5.202-19.686-6.548-30.503-4.116
					c-7.968,1.792-13.959,6.511-18.315,14.428c-4.519,8.213-5.809,16.239-3.944,24.537c1.528,6.793,7.047,13.235,16.401,19.146
					c6.849,4.342,23.282,9.938,62.726,11.976c3.165,0.163,5.825,2.433,6.485,5.533s-0.846,6.257-3.671,7.695
					c-35.544,18.097-47.82,30.123-51.859,37.025c-5.653,9.641-7.732,18.016-6.185,24.898c1.869,8.31,6.469,15.009,14.063,20.481
					c7.324,5.298,14.758,6.995,22.734,5.205c10.78-2.425,19.162-8.032,25.624-17.142l0,0c7.466-10.53,17.026-22.846,28.416-36.605
					C2780.343,2967.006,2782.332,2966.103,2784.384,2966.103z M2756.284,3009.293h0.01H2756.284z"/>
			</g>
			<g>
				<path style="fill:#FFFFFF;" d="M3119.554,2927.607c-7.436,10.486-17.373,17.128-29.798,19.922
					c-9.948,2.237-19.407,0.124-28.362-6.355c-8.966-6.461-14.562-14.675-16.799-24.624c-1.955-8.696,0.357-18.689,6.972-29.97
					c6.6-11.277,24.848-24.516,54.726-39.729c-33.039-1.705-55.074-6.055-66.104-13.047c-11.041-6.975-17.533-14.819-19.491-23.529
					c-2.234-9.935-0.693-19.754,4.641-29.447c5.323-9.674,12.964-15.645,22.912-17.882c12.425-2.794,24.216-1.192,35.353,4.781
					c11.141,5.989,24.729,12.726,40.782,20.211c-3.768-10.905-7.582-20.652-11.474-29.249c-3.888-8.583-6.602-16.297-8.142-23.144
					c-2.794-12.424-1.801-23.253,2.976-32.499c4.78-9.231,13.068-15.181,24.881-17.837c12.425-2.794,22.892-1.23,31.415,4.689
					c8.509,5.921,14.169,15.102,16.963,27.526c1.818,8.084,2.488,16.917,2.036,26.476c-0.463,9.576,0.179,19.715,1.942,30.413
					c11.636-15.012,21.427-27.344,29.393-36.971c7.952-9.622,17.528-15.692,28.715-18.208c9.934-2.234,19.395-0.108,28.361,6.353
					c8.956,6.48,14.566,14.691,16.8,24.626c1.958,8.709-0.712,18.613-8.01,29.712c-7.295,11.113-25.507,24.512-54.621,40.194
					c32.887,1.099,55.046,5.252,66.465,12.478c11.418,7.226,18.108,15.195,20.063,23.891c2.237,9.948,0.681,19.771-4.642,29.445
					c-5.334,9.692-12.977,15.651-22.911,17.885c-11.187,2.516-22.473,0.982-33.85-4.63c-11.389-5.597-25.549-12.696-42.494-21.296
					c2.989,10.437,6.749,19.875,11.264,28.318c4.504,8.459,7.679,16.728,9.494,24.797c2.797,12.44,1.644,23.304-3.442,32.603
					c-5.097,9.319-13.854,15.358-26.279,18.152c-11.813,2.656-21.847,0.843-30.122-5.47c-8.271-6.295-13.804-15.656-16.601-28.096
					c-1.677-7.457-2.595-15.897-2.759-25.332c-0.16-9.422-0.889-19.877-2.151-31.347
					C3136.353,2905.067,3126.99,2917.12,3119.554,2927.607z"/>
				<path style="fill:#101111;" d="M3189.205,2989.849c-9.091,0.001-17.225-2.704-24.286-8.091
					c-9.573-7.285-16.03-18.096-19.185-32.127c-1.771-7.878-2.757-16.876-2.929-26.745c-0.072-4.279-0.27-8.843-0.589-13.662
					c-6.498,8.184-12.173,15.692-16.953,22.433l0,0c-8.433,11.893-19.863,19.53-33.973,22.701c-11.956,2.69-23.395,0.161-34-7.512
					c-10.338-7.449-16.911-17.128-19.526-28.76c-2.352-10.461,0.26-22.252,7.764-35.047c5.552-9.487,17.657-19.727,36.782-31.059
					c-21.615-2.414-36.721-6.465-45.87-12.265c-12.603-7.963-20.2-17.353-22.572-27.905c-2.612-11.614-0.816-23.174,5.337-34.357
					c6.313-11.474,15.568-18.652,27.51-21.336c14.049-3.16,27.572-1.329,40.196,5.44c7.241,3.893,15.598,8.139,24.964,12.685
					c-1.781-4.513-3.566-8.744-5.342-12.665c-4.065-8.976-6.957-17.217-8.594-24.495c-3.15-14.014-1.943-26.545,3.586-37.248
					c5.758-11.12,15.704-18.337,29.563-21.454c14.354-3.226,26.784-1.285,36.944,5.769c9.962,6.933,16.622,17.61,19.799,31.739
					c1.94,8.629,2.68,18.165,2.198,28.343c-0.19,3.946-0.181,8.019,0.03,12.195c7.272-9.247,13.52-17.021,18.919-23.547
					c8.924-10.798,19.884-17.721,32.573-20.573c11.922-2.685,23.36-0.158,33.989,7.503c10.359,7.495,16.93,17.172,19.537,28.769
					c2.382,10.593-0.643,22.399-8.99,35.094c-6.035,9.195-18.13,19.354-36.742,30.814c21.691,2.102,37.001,6.098,46.48,12.097
					c12.991,8.222,20.78,17.732,23.148,28.271c2.612,11.612,0.816,23.171-5.338,34.354c-6.316,11.477-15.571,18.655-27.509,21.339
					c-12.751,2.869-25.699,1.124-38.482-5.182c-7.765-3.815-16.725-8.281-27.127-13.522c1.591,3.844,3.316,7.506,5.167,10.966
					c4.801,9.021,8.214,17.954,10.149,26.563c3.167,14.082,1.778,26.698-4.129,37.499c-6.075,11.105-16.466,18.38-30.885,21.622
					C3196.796,2989.396,3192.92,2989.849,3189.205,2989.849z M3147.654,2884.417c0.669,0,1.345,0.096,2.007,0.294
					c2.693,0.807,4.643,3.146,4.95,5.94c1.294,11.75,2.031,22.515,2.192,31.993c0.155,8.917,1.026,16.964,2.589,23.916
					c2.446,10.877,7.029,18.748,14.012,24.062c6.6,5.034,14.563,6.407,24.347,4.211c10.467-2.354,17.557-7.157,21.673-14.683
					c4.284-7.833,5.186-16.896,2.754-27.708c-1.661-7.388-4.637-15.141-8.844-23.044c-4.731-8.848-8.709-18.838-11.814-29.68
					c-0.767-2.677,0.126-5.554,2.273-7.326s5.142-2.104,7.624-0.844c16.978,8.617,31.248,15.769,42.413,21.256
					c9.989,4.927,19.548,6.262,29.228,4.083c7.966-1.791,13.956-6.511,18.314-14.43c4.52-8.215,5.811-16.24,3.945-24.534
					c-1.525-6.784-7.237-13.349-16.977-19.512c-7.073-4.476-23.737-10.086-62.955-11.396c-3.162-0.105-5.859-2.318-6.582-5.397
					c-0.722-3.08,0.711-6.262,3.496-7.762c34.813-18.751,47.541-30.945,52.089-37.872c6.184-9.404,8.548-17.591,7.032-24.336
					c-1.863-8.283-6.467-14.985-14.075-20.49c-7.328-5.282-14.763-6.983-22.722-5.194c-9.726,2.187-17.855,7.367-24.854,15.837
					c-7.771,9.392-17.34,21.428-29.257,36.801c-1.705,2.199-4.552,3.182-7.251,2.497c-2.698-0.684-4.735-2.901-5.188-5.648
					c-1.831-11.112-2.513-21.841-2.027-31.889c0.422-8.918-0.208-17.197-1.872-24.603c-2.419-10.754-7.041-18.381-14.132-23.314
					c-6.897-4.79-15.366-5.974-25.882-3.605c-9.773,2.198-16.381,6.852-20.2,14.227c-4.03,7.802-4.805,16.88-2.362,27.745
					c1.429,6.35,4.016,13.681,7.688,21.79c3.92,8.656,7.861,18.699,11.715,29.852c0.918,2.656,0.158,5.604-1.93,7.485
					c-2.088,1.883-5.1,2.333-7.645,1.145c-16.052-7.484-29.893-14.345-41.139-20.39c-9.701-5.203-19.685-6.549-30.502-4.117
					c-7.969,1.792-13.959,6.511-18.315,14.427c-4.52,8.215-5.81,16.24-3.944,24.537c1.527,6.794,7.046,13.236,16.401,19.146
					c6.849,4.342,23.281,9.938,62.726,11.976c3.165,0.163,5.825,2.433,6.485,5.533s-0.846,6.257-3.671,7.695
					c-35.544,18.097-47.82,30.123-51.859,37.025c-5.653,9.64-7.732,18.015-6.186,24.899c1.869,8.309,6.469,15.008,14.063,20.479
					c7.325,5.299,14.759,7,22.734,5.205c10.782-2.424,19.163-8.03,25.624-17.141c7.474-10.54,17.034-22.855,28.418-36.605
					C3143.613,2885.32,3145.603,2884.417,3147.654,2884.417z M3119.554,2927.607h0.01H3119.554z"/>
			</g>
			<path style="fill:#101111;" d="M2468.924,3245.831c-3.207,0-6.099-2.218-6.825-5.479c-0.842-3.773,1.536-7.515,5.309-8.355
				l1029.557-229.508c98.001-21.717,169.3-67.696,206.197-132.972c33.346-58.99,37.152-131.355,11.007-209.271
				c-1.229-3.665,0.744-7.634,4.409-8.863c3.663-1.23,7.633,0.743,8.863,4.409c27.443,81.784,23.262,158.072-12.092,220.615
				c-38.905,68.827-113.371,117.151-215.347,139.748l-1029.548,229.506C2469.941,3245.775,2469.429,3245.831,2468.924,3245.831z"/>
		</g>
		<g>
			<g>
				<g>
					<g>
						<path style="fill:#2CD997;" d="M1249.247,2127.736c-157.037,139.454-316.634,231.957-534.067,303.97
							c1.549,14.242,10.176,93.572,49.729,457.266c52.763,485.164,561.92,667.285,640.919,695.137
							c68.921-40.202,530.423-332.324,477.66-817.488c-39.553-363.695-48.18-443.025-49.729-457.267
							C1605.959,2286.042,1414.176,2223.388,1249.247,2127.736z"/>
						<path style="fill:#101111;" d="M1405.827,3591.109c-0.784,0-1.571-0.132-2.328-0.398
							c-153.719-54.194-265.506-126.228-332.215-177.112c-82.414-62.863-150.016-133.989-200.93-211.402
							c-62.347-94.796-100.165-199.925-112.404-312.467l-49.729-457.266c-0.356-3.28,1.626-6.364,4.758-7.401
							c213.408-70.682,372.397-161.167,531.62-302.561c2.258-2.006,5.548-2.336,8.16-0.821
							c83.077,48.181,172.999,87.651,267.269,117.314c97.554,30.697,203.349,52.027,314.444,63.396
							c3.285,0.337,5.889,2.924,6.246,6.207l49.729,457.267c54.038,496.887-426.16,792.248-481.093,824.291
							C1408.271,3590.787,1407.053,3591.109,1405.827,3591.109z M722.75,2436.565l49.118,451.65
							c11.997,110.314,49.068,213.364,110.183,306.287c50.044,76.092,116.569,146.061,197.724,207.965
							c65.466,49.937,174.891,120.494,325.315,173.955c65.769-38.932,523.705-328.441,471.438-809.044l-49.118-451.646
							c-109.979-11.605-214.782-32.923-311.585-63.384c-93.601-29.453-182.967-68.479-265.712-116.031
							C1091.97,2275.967,933.715,2366.069,722.75,2436.565z"/>
					</g>
				</g>
			</g>
			<g>
				<path style="fill:#FFFFFF;" d="M1625.693,2656.115l-74.86-59.587c-0.328-0.261-19.074,24.226-19.336,24.555l-262.457,329.737
					c-0.261,0.329-0.74,0.383-1.068,0.121l-196.793-156.644c-0.329-0.261-0.807-0.207-1.068,0.121l-59.589,74.848
					c-0.262,0.329-0.207,0.807,0.121,1.069l197.398,157.107l-0.01,0.013c-0.262,0.329-0.207,0.807,0.121,1.069l74.86,59.587
					c0.328,0.261,0.807,0.207,1.068-0.122l0,0l0.586,0.475l60.071-75.467c0.258-0.324,0.209-0.794-0.109-1.058l-0.012-0.01
					l262.931-330.311C1607.808,2681.288,1626.021,2656.377,1625.693,2656.115z"/>
				<path style="fill:#101111;" d="M1284.666,3095.464c-0.564,0-1.124-0.068-1.666-0.201c-1.579-0.096-3.087-0.671-4.349-1.677
					L1203.792,3034c-0.935-0.744-1.67-1.673-2.17-2.72l-195.339-155.468c-3.347-2.666-3.903-7.557-1.241-10.904l59.59-74.851
					c2.67-3.35,7.561-3.901,10.906-1.237l191.91,152.758l258.571-324.855l0.738-0.961c1.81-2.355,6.326-8.231,10.452-13.526
					c2.082-2.671,4.064-5.195,5.559-7.056c2.974-3.702,4.204-5.234,7.203-5.603c1.865-0.223,3.748,0.303,5.216,1.47l74.864,59.592
					c0,0,0.001,0.001,0.001,0.001c1.189,0.947,4.762,4.503,0.805,10.492c-0.492,0.745-1.214,1.795-2.092,3.049
					c-1.503,2.146-3.605,5.091-6.248,8.755c-4.012,5.563-9.159,12.619-9.493,13.039l-261.331,328.301
					c-0.25,1.097-0.742,2.154-1.485,3.086l-60.066,75.462c-1.163,1.461-2.861,2.396-4.717,2.6
					C1285.173,3095.45,1284.918,3095.464,1284.666,3095.464z M1214.426,3024.57l68.653,54.647l54.681-68.697
					c0.213-1.048,0.669-2.061,1.379-2.952l262.873-330.239c1.313-1.758,9.554-13.071,14.281-19.748l-64.461-51.311
					c-2.595,3.287-6.885,8.797-13.974,18.021c-0.536,0.698-0.856,1.112-0.89,1.155l-262.453,329.731
					c-1.292,1.622-3.136,2.644-5.196,2.878c-2.062,0.229-4.089-0.349-5.71-1.641L1071.7,2803.658l-51.816,65.086l192.516,153.222
					C1213.304,3022.685,1213.982,3023.583,1214.426,3024.57z M1213.56,3031.748c-0.016,0.021-0.034,0.043-0.048,0.063
					C1213.527,3031.79,1213.543,3031.769,1213.56,3031.748z"/>
			</g>
			<g>
				<g>
					<path style="fill:#101111;" d="M823.856,2927.282c-3.526,0-6.56-2.658-6.95-6.244l-49.729-457.267
						c-0.357-3.28,1.625-6.364,4.758-7.401c179.723-59.524,319.415-132.581,452.94-236.881c3.047-2.38,7.447-1.838,9.826,1.208
						c2.38,3.047,1.839,7.446-1.208,9.826c-133.515,104.292-273.05,177.624-451.788,237.352l49.118,451.65
						c0.418,3.844-2.359,7.298-6.202,7.716C824.365,2927.269,824.109,2927.282,823.856,2927.282z"/>
				</g>
			</g>
		</g>
	</g>
</g>
</svg>
